<svg width="85" height="85" viewBox="0 0 85 85" fill="none" xmlns="http://www.w3.org/2000/svg">
<path d="M42.5 79.9838C63.2017 79.9838 79.9838 63.2017 79.9838 42.5C79.9838 21.7983 63.2017 5.01624 42.5 5.01624C21.7983 5.01624 5.0162 21.7983 5.0162 42.5C5.0162 63.2017 21.7983 79.9838 42.5 79.9838Z" fill="#FFD5A2"/>
<path d="M67.2928 42.1856L32.7019 30.2099C30.791 29.5483 28.7056 30.5611 28.044 32.472L16.0682 67.0629C15.4067 68.9738 16.4194 71.0592 18.3304 71.7208L52.9212 83.6965C54.8321 84.3581 56.9176 83.3453 57.5791 81.4344L69.5549 46.8435C70.2165 44.9326 69.2037 42.8472 67.2928 42.1856Z" fill="white"/>
<path d="M28.3886 30.9702L28.3965 30.9729L65.9043 43.9585C66.3345 44.1075 66.6879 44.4212 66.8867 44.8307C67.0856 45.2402 67.1137 45.7119 66.9647 46.1421L53.8514 84.0187L16.0829 70.9428L15.5896 67.939L28.3886 30.9702Z" fill="#FFD5A2"/>
<path d="M67.3689 53.1577L57.5792 81.4346C57.4219 81.8889 57.1766 82.3079 56.8574 82.6675C56.5382 83.0271 56.1512 83.3202 55.7187 83.5303C55.2862 83.7404 54.8165 83.8632 54.3365 83.8917C53.8565 83.9203 53.3756 83.854 52.9213 83.6967L18.3304 71.7209C17.876 71.5636 17.4571 71.3183 17.0975 70.9991C16.7379 70.6799 16.4447 70.293 16.2346 69.8605C16.0246 69.4279 15.9018 68.9583 15.8732 68.4783C15.8447 67.9983 15.9109 67.5174 16.0683 67.063L25.8285 38.8713" fill="#FFD5A2"/>
<path d="M67.0596 52.8778L57.478 80.5534C57.3824 80.8295 57.2332 81.084 57.039 81.3023C56.8447 81.5205 56.6092 81.6983 56.3461 81.8252C56.0829 81.9522 55.7973 82.0259 55.5055 82.0421C55.2138 82.0583 54.9217 82.0167 54.6461 81.9197L19.8015 69.6547C19.5832 69.5791 19.3818 69.4612 19.209 69.3078C19.0362 69.1544 18.8953 68.9684 18.7944 68.7606C18.6934 68.5527 18.6344 68.327 18.6207 68.0963C18.607 67.8657 18.6388 67.6346 18.7144 67.4162L28.4201 39.3821" fill="white"/>
<path d="M47.9571 20.0679C46.378 17.4003 44.1654 15.1634 41.5153 13.5552C38.8651 11.947 35.8593 11.0172 32.764 10.8481C29.6687 10.6791 26.5795 11.276 23.77 12.586C20.9605 13.896 18.5174 15.8787 16.6572 18.3585C14.797 20.8382 13.577 23.7384 13.1054 26.8022C12.6338 29.866 12.925 32.9989 13.9534 35.9233C14.9817 38.8476 16.7154 41.4733 19.0008 43.5676C21.2863 45.6619 24.053 47.1603 27.0558 47.9299C28.5954 48.326 30.1788 48.5269 31.7685 48.5279C35.0924 48.5209 38.3554 47.6355 41.2268 45.9613C44.0982 44.2871 46.4761 41.8836 48.1195 38.9945C49.7629 36.1053 50.6134 32.8331 50.5849 29.5093C50.5564 26.1856 49.6498 22.9284 47.9571 20.0679Z" fill="#FFD5A2"/>
<path d="M54.1228 84.7983C53.6137 84.7978 53.1083 84.7122 52.6275 84.545L18.0366 72.5692C17.4706 72.3737 16.9487 72.0685 16.5007 71.6711C16.0527 71.2737 15.6875 70.7919 15.4259 70.2532C15.1643 69.7145 15.0114 69.1295 14.9761 68.5317C14.9407 67.9339 15.0236 67.335 15.2199 66.7693L27.1956 32.1784C27.3912 31.6124 27.6964 31.0904 28.0938 30.6425C28.4912 30.1945 28.973 29.8293 29.5117 29.5677C30.0504 29.3061 30.6354 29.1532 31.2332 29.1179C31.8309 29.0825 32.4298 29.1654 32.9956 29.3617V29.3616L67.5865 41.3374C68.7283 41.7342 69.6661 42.5676 70.1941 43.6549C70.7222 44.7423 70.7974 45.9946 70.4032 47.1373L58.4274 81.7282C58.1168 82.6231 57.5357 83.3993 56.7645 83.9494C55.9932 84.4994 55.0701 84.7961 54.1228 84.7982L54.1228 84.7983ZM31.5015 30.9054C30.9271 30.9055 30.3671 31.0848 29.8994 31.4183C29.4317 31.7517 29.0796 32.2228 28.8923 32.7658L16.9166 67.3567C16.7974 67.6996 16.747 68.0627 16.7684 68.4252C16.7897 68.7876 16.8823 69.1423 17.0409 69.4688C17.1995 69.7954 17.421 70.0875 17.6927 70.3284C17.9643 70.5693 18.2808 70.7542 18.624 70.8726L53.2149 82.8483C53.9076 83.0881 54.6671 83.043 55.3265 82.7227C55.9859 82.4025 56.491 81.8335 56.7308 81.1408L68.7066 46.5499C68.9455 45.8572 68.8999 45.098 68.5798 44.4389C68.2597 43.7798 67.6912 43.2745 66.9991 43.034L32.4082 31.0583C32.1166 30.9572 31.8102 30.9055 31.5015 30.9054Z" fill="#00234B"/>
<path d="M67.1678 53.9859C67.0678 53.9859 66.9685 53.9691 66.874 53.9362L25.7656 39.704C25.6542 39.6655 25.5514 39.6053 25.4633 39.5271C25.3751 39.4488 25.3032 39.354 25.2517 39.2479C25.2001 39.1418 25.17 39.0267 25.163 38.909C25.156 38.7913 25.1723 38.6734 25.2108 38.562C25.2494 38.4505 25.3096 38.3478 25.3878 38.2597C25.4661 38.1715 25.561 38.0996 25.6671 38.0481C25.7731 37.9966 25.8883 37.9665 26.006 37.9595C26.1237 37.9525 26.2416 37.9688 26.353 38.0074L67.4614 52.2396C67.662 52.3091 67.8315 52.4474 67.9398 52.63C68.0481 52.8126 68.0882 53.0276 68.053 53.2369C68.0178 53.4463 67.9096 53.6364 67.7475 53.7735C67.5854 53.9106 67.3801 53.9859 67.1678 53.9859Z" fill="#00234B"/>
<path d="M48.1195 64.9297L48.1196 64.9296C47.9955 64.1635 47.7346 63.4259 47.3493 62.7521C47.8763 62.4783 48.361 62.1296 48.7882 61.717C49.4259 61.101 49.9165 60.3057 50.2462 59.3532C50.5843 58.3769 50.7173 57.4175 50.6418 56.5012C50.5692 55.5914 50.2923 54.7097 49.8318 53.9217C49.3483 53.1122 48.7147 52.4025 47.965 51.8308C47.1889 51.2263 46.2635 50.7356 45.2143 50.3724C44.1463 50.0026 43.1062 49.8128 42.123 49.8082C41.1802 49.7939 40.2434 49.9599 39.3629 50.2972C38.5138 50.6321 37.7489 51.1498 37.1224 51.8136C36.4853 52.484 35.9902 53.3206 35.6511 54.3002C35.3225 55.2493 35.208 56.1659 35.3109 57.0238C35.3789 57.5956 35.5258 58.1551 35.7473 58.6866C35.0129 58.9805 34.3358 59.4013 33.7471 59.9297C32.9541 60.6429 32.351 61.585 31.9546 62.7299C31.2113 64.8768 31.3159 66.8495 32.2652 68.593C33.2025 70.3146 34.932 71.6218 37.4055 72.4781C39.8578 73.3271 42.0275 73.3718 43.8545 72.6107C45.71 71.8378 47.0282 70.3559 47.7725 68.2062C48.1678 67.0644 48.2846 65.962 48.1195 64.9297ZM44.3788 58.7709C43.8517 58.9979 43.1369 58.9581 42.2543 58.6525C41.397 58.3557 40.8368 57.9587 40.5894 57.4724C40.4683 57.2441 40.397 56.9926 40.3802 56.7347C40.3635 56.4768 40.4017 56.2183 40.4923 55.9762C40.6718 55.4577 41.0094 55.1117 41.5546 54.8873C42.1161 54.6566 42.8219 54.6855 43.6526 54.9731C44.4586 55.2521 45.005 55.6526 45.2765 56.1633C45.5424 56.6638 45.5845 57.1589 45.4051 57.6771C45.224 58.2001 44.898 58.5477 44.3788 58.7709ZM38.2564 63.1131C38.8966 62.8268 39.7228 62.8552 40.7119 63.1976C41.6805 63.533 42.3295 64.0088 42.6406 64.6114C42.9498 65.2116 42.9903 65.8204 42.7646 66.4724C42.5394 67.1227 42.1283 67.5737 41.5077 67.8512C40.8802 68.1318 40.0511 68.0971 39.043 67.7482C38.0244 67.3955 37.364 66.9199 37.0798 66.3342C36.7914 65.741 36.7621 65.1323 36.9903 64.4733C37.209 63.8416 37.6232 63.3967 38.2564 63.1131Z" fill="#FFD5A2"/>
<path d="M41.0431 74.0484C39.8155 74.0484 38.5022 73.8077 37.1118 73.3264C34.4203 72.3945 32.5244 70.9464 31.4768 69.0222C30.4016 67.0475 30.2769 64.8317 31.1063 62.4361C31.553 61.146 32.2395 60.0781 33.1469 59.2621C33.5994 58.8553 34.0993 58.5044 34.6357 58.217C34.5355 57.8608 34.4632 57.4973 34.4194 57.1298C34.3003 56.1363 34.4293 55.0851 34.8028 54.0064C35.1841 52.9049 35.7456 51.959 36.4718 51.195C37.1882 50.4362 38.0629 49.8445 39.0338 49.4619C39.9766 49.0906 41.0171 48.9068 42.1273 48.9103C43.2094 48.9155 44.3468 49.1219 45.508 49.5239C46.6506 49.9195 47.6628 50.4573 48.5167 51.1224C49.3565 51.7642 50.0659 52.5605 50.6068 53.4686C51.1353 54.3722 51.453 55.3833 51.5365 56.4267C51.6223 57.4688 51.4736 58.552 51.0946 59.6468C50.7182 60.7339 50.1521 61.6477 49.4119 62.3626C49.1345 62.6306 48.8355 62.8753 48.518 63.0943C48.7487 63.6369 48.9126 64.2056 49.0061 64.7879L48.1196 64.9296L49.006 64.7879C49.1947 65.9678 49.0651 67.2167 48.6208 68.4998C47.7892 70.9019 46.3017 72.5638 44.1997 73.4394C43.1985 73.8503 42.1253 74.0573 41.0431 74.0484ZM42.0808 50.7057C41.2648 50.6966 40.4544 50.8413 39.692 51.1324C38.9648 51.4194 38.3097 51.8631 37.7733 52.4318C37.2249 53.0089 36.7963 53.7362 36.4995 54.5938C36.2157 55.4133 36.1157 56.1949 36.2022 56.9169C36.2606 57.4067 36.3865 57.8862 36.5761 58.3416C36.6218 58.4512 36.6452 58.5687 36.6451 58.6875C36.645 58.8062 36.6213 58.9237 36.5754 59.0332C36.5296 59.1427 36.4625 59.242 36.378 59.3254C36.2935 59.4088 36.1933 59.4746 36.0832 59.519C35.4461 59.7741 34.8586 60.1389 34.3476 60.5971C33.6687 61.2075 33.1491 62.0239 32.803 63.0235C32.1458 64.9218 32.2301 66.6512 33.0536 68.1637C33.8807 69.6827 35.4437 70.8488 37.6992 71.6297C39.9371 72.4044 41.8919 72.4557 43.5092 71.7819C45.1183 71.1117 46.2673 69.8098 46.9242 67.9124C47.2706 66.9119 47.3745 65.956 47.2331 65.0714L47.2331 65.0713C47.1256 64.411 46.9004 63.7753 46.5683 63.1946C46.5089 63.0897 46.4712 62.974 46.4575 62.8542C46.4437 62.7345 46.4543 62.6132 46.4884 62.4976C46.5226 62.382 46.5797 62.2745 46.6563 62.1814C46.7329 62.0884 46.8275 62.0117 46.9344 61.956C47.3848 61.7218 47.799 61.4239 48.1643 61.0714C48.6998 60.5542 49.1148 59.8773 49.3979 59.0594C49.6948 58.2019 49.8123 57.366 49.7471 56.5748C49.6854 55.7988 49.4494 55.0467 49.0567 54.3745C48.6307 53.6636 48.0729 53.0406 47.4133 52.5388C46.7153 51.9951 45.8766 51.5516 44.9206 51.2206C43.946 50.8832 43.0033 50.71 42.1187 50.7058C42.1061 50.7057 42.0935 50.7057 42.0808 50.7057ZM40.5535 68.9358C40.0056 68.9358 39.4028 68.8226 38.7494 68.5964C37.4974 68.1629 36.6639 67.5336 36.2721 66.7259C35.8801 65.9196 35.8362 65.0626 36.142 64.1795C36.442 63.3131 37.0299 62.6786 37.8895 62.2937L37.8899 62.2936C38.7454 61.9109 39.7936 61.9297 41.0056 62.3492C42.1994 62.7625 43.0179 63.385 43.4384 64.1995C43.8604 65.0188 43.919 65.8821 43.6129 66.7661C43.3066 67.6509 42.7216 68.2918 41.8742 68.6707C41.4577 68.8516 41.0075 68.942 40.5535 68.9358ZM38.6229 63.9325C38.2174 64.1142 37.9755 64.3715 37.8386 64.7669C37.6883 65.201 37.7033 65.5633 37.8872 65.9415C38.0589 66.2954 38.5736 66.6355 39.3368 66.8997C40.1108 67.1677 40.7348 67.2133 41.1414 67.0316C41.5338 66.8561 41.7728 66.593 41.9162 66.1787C42.0613 65.7596 42.0386 65.403 41.8426 65.0224C41.6439 64.6376 41.1512 64.2996 40.4182 64.0458C39.6628 63.7843 39.0419 63.7451 38.6229 63.9326L38.6229 63.9325ZM43.6074 59.8125C43.1111 59.8125 42.5609 59.7086 41.9607 59.5007C40.8761 59.1253 40.1456 58.5797 39.7893 57.8793C39.6131 57.5436 39.5091 57.1746 39.4841 56.7963C39.4591 56.4179 39.5135 56.0385 39.644 55.6824C39.9064 54.9244 40.4343 54.3775 41.213 54.0571C41.9832 53.7405 42.9027 53.7634 43.9463 54.1246C44.9736 54.4803 45.6878 55.0244 46.0692 55.7417C46.4533 56.4647 46.5152 57.2146 46.2534 57.9707C45.9913 58.7278 45.48 59.2744 44.7339 59.5954C44.3772 59.7441 43.9938 59.818 43.6074 59.8125ZM42.3879 55.6316C42.2198 55.628 42.0527 55.6572 41.8959 55.7176C41.5436 55.8626 41.419 56.0432 41.3406 56.2698C41.2897 56.3977 41.2677 56.5353 41.2761 56.6727C41.2845 56.8102 41.3232 56.944 41.3894 57.0648C41.5221 57.3258 41.9444 57.5951 42.548 57.8041C43.1937 58.0276 43.7177 58.0782 44.0237 57.9463L44.0242 57.9461C44.3134 57.8218 44.4578 57.6692 44.5568 57.3833C44.654 57.1026 44.6321 56.8637 44.4837 56.5844C44.3245 56.2849 43.9355 56.0209 43.3589 55.8213C43.0478 55.7054 42.7198 55.6413 42.3879 55.6316Z" fill="#00234B"/>
<path d="M33.242 45.0564C43.1369 45.0564 51.1584 37.0349 51.1584 27.14C51.1584 17.2451 43.1369 9.22363 33.242 9.22363C23.347 9.22363 15.3256 17.2451 15.3256 27.14C15.3256 37.0349 23.347 45.0564 33.242 45.0564Z" fill="#FFD5A2"/>
<path d="M40.5852 11.1034L36.3683 8.93473L37.6869 5.89424L36.6695 5.56123L37.6333 1.82629L43.537 3.81425L42.2117 7.1275L40.4647 6.94677L40.5852 11.1034Z" fill="#FFD5A2"/>
<path d="M40.5249 2.85052L38.4466 9.74811L40.5852 11.1035L41.647 7.1101L43.1756 3.9951L40.5249 2.85052Z" fill="white"/>
<path d="M17.9948 7.12765L19.6815 10.0795L21.3866 10.328L22.1796 13.0444L25.5851 11.4048L25.6043 9.75759L24.1763 7.65723L23.8557 5.49259L22.4526 3.99512L17.9948 7.12765Z" fill="#FFD5A2"/>
<path d="M21.1273 6.22391L24.1394 11.7058L26.1876 10.501L23.7779 7.42873L25.043 6.46488L23.6574 4.17572L20.7125 5.54205L21.1273 6.22391Z" fill="white"/>
<path d="M33.5879 39.9651C40.5465 39.9651 46.1875 34.324 46.1875 27.3654C46.1875 20.4069 40.5465 14.7658 33.5879 14.7658C26.6293 14.7658 20.9883 20.4069 20.9883 27.3654C20.9883 34.324 26.6293 39.9651 33.5879 39.9651Z" fill="white"/>
<path d="M34.1049 42.6278C32.7562 42.627 31.4129 42.4565 30.1067 42.1205C26.1934 41.1075 22.8127 38.6421 20.6522 35.2255C18.4917 31.809 17.7136 27.6978 18.4761 23.728C19.2385 19.7582 21.4843 16.2279 24.7568 13.8548C28.0293 11.4817 32.0827 10.4442 36.0929 10.953C40.1031 11.4619 43.769 13.479 46.345 16.5942C48.9211 19.7094 50.2139 23.6888 49.9607 27.7232C49.7075 31.7576 47.9272 35.5441 44.9819 38.3128C42.0365 41.0814 38.1473 42.6244 34.1049 42.6278ZM34.0524 12.1372C30.8407 12.1461 27.7229 13.2207 25.1878 15.1925C22.6528 17.1643 20.8439 19.9218 20.0449 23.0325C19.0842 26.7807 26.7325 39.7009 30.4806 40.6616C34.2023 41.6155 38.1504 41.0519 41.4565 39.0949C44.7626 37.1378 47.1559 33.9475 48.1098 30.2259C49.0637 26.5043 48.5001 22.5561 46.543 19.25C44.5859 15.9439 41.3957 13.5507 37.6741 12.5968C36.4909 12.2924 35.2741 12.138 34.0524 12.1372V12.1372Z" fill="white"/>
<path d="M33.2745 45.9619C31.6878 45.9608 30.1075 45.7603 28.5708 45.365C23.9669 44.1732 19.9897 41.2728 17.4479 37.2533C14.9062 33.2338 13.9908 28.3972 14.8878 23.7269C15.7848 19.0566 18.4269 14.9033 22.2769 12.1115C26.1268 9.31965 30.8956 8.09897 35.6134 8.69764C40.3313 9.29631 44.644 11.6694 47.6746 15.3343C50.7052 18.9992 52.2262 23.6808 51.9283 28.4272C51.6304 33.1735 49.536 37.6282 46.0709 40.8854C42.6058 44.1426 38.0302 45.9578 33.2745 45.9619ZM33.2127 10.1144C28.8712 10.1132 24.6924 11.7663 21.5265 14.7372C18.3607 17.7081 16.4457 21.7736 16.1713 26.1064C15.8969 30.4392 17.2837 34.7138 20.0495 38.0603C22.8152 41.4069 26.7522 43.5739 31.0591 44.1204C35.3661 44.667 39.7195 43.552 43.2335 41.0023C46.7474 38.4527 49.1579 34.6599 49.9745 30.3959C50.791 26.1319 49.9522 21.7169 47.6287 18.0495C45.3053 14.382 41.6718 11.7376 37.4676 10.6543C36.0775 10.2967 34.648 10.1153 33.2127 10.1144Z" fill="#00234B"/>
<path d="M33.2659 41.0208C32.0957 41.0201 30.9303 40.8722 29.797 40.5806C26.4017 39.7017 23.4687 37.5627 21.5943 34.5984C19.7199 31.6342 19.0448 28.0674 19.7064 24.6232C20.3679 21.179 22.3164 18.1161 25.1557 16.0572C27.9949 13.9984 31.5117 13.0982 34.9909 13.5397C38.4702 13.9813 41.6506 15.7313 43.8856 18.4341C46.1206 21.1369 47.2422 24.5894 47.0225 28.0897C46.8028 31.5899 45.2582 34.8751 42.7028 37.2772C40.1474 39.6792 36.773 41.0179 33.2659 41.0208ZM33.2212 15.0554C31.0622 15.057 28.9437 15.6407 27.0886 16.7451C21.3568 20.1381 19.4541 27.5616 22.847 33.2934C24.4803 36.0488 27.1406 38.0433 30.2434 38.8386C33.3463 39.6339 36.638 39.165 39.3953 37.5349C45.1271 34.142 47.0299 26.7184 43.6369 20.9867C42.8322 19.6188 41.7642 18.4242 40.4948 17.4718C39.2253 16.5195 37.7796 15.8284 36.2412 15.4386C35.2546 15.1848 34.2399 15.0561 33.2212 15.0554Z" fill="#00234B"/>
<path d="M28.1988 19.4836C28.0427 19.4838 27.8893 19.4433 27.7537 19.366C27.618 19.2887 27.5049 19.1774 27.4255 19.0431L25.8821 16.4358C25.6295 16.0091 27.1745 15.0945 27.4271 15.5211L28.9705 18.1284C29.0511 18.2647 29.0943 18.4199 29.0956 18.5782C29.0969 18.7365 29.0563 18.8924 28.978 19.03C28.8996 19.1676 28.7863 19.282 28.6495 19.3617C28.5126 19.4414 28.3572 19.4834 28.1988 19.4836Z" fill="#00234B"/>
<path d="M21.907 34.3457C21.6001 34.3457 21.0221 32.9279 21.4488 32.6753L24.0561 31.1319C24.261 31.0106 24.5056 30.9757 24.7363 31.0348C24.8505 31.0641 24.9578 31.1156 25.0521 31.1863C25.1464 31.2571 25.2258 31.3457 25.2859 31.4471C25.3459 31.5486 25.3854 31.6609 25.4021 31.7776C25.4187 31.8943 25.4123 32.0131 25.383 32.1273C25.3537 32.2415 25.3022 32.3488 25.2315 32.4431C25.1608 32.5374 25.0721 32.6169 24.9707 32.6769L22.3634 34.2204C22.2253 34.3024 22.0676 34.3457 21.907 34.3457Z" fill="#00234B"/>
<path d="M41.6479 22.6599C41.451 22.6601 41.2596 22.5955 41.103 22.4762C40.9464 22.3569 40.8334 22.1894 40.7813 21.9996C40.7293 21.8097 40.741 21.6081 40.8148 21.4255C40.8886 21.243 41.0203 21.0899 41.1897 20.9896L43.4971 19.6237C43.702 19.5024 43.9467 19.4675 44.1773 19.5266C44.4079 19.5857 44.6056 19.734 44.7269 19.9389C44.8482 20.1438 44.8831 20.3884 44.824 20.6191C44.7649 20.8497 44.6166 21.0474 44.4117 21.1687L42.1043 22.5346C41.9662 22.6166 41.8085 22.6599 41.6479 22.6599Z" fill="#00234B"/>
<path d="M39.8532 39.1712C39.6972 39.1714 39.5437 39.1309 39.4081 39.0536C39.2725 38.9763 39.1593 38.865 39.0799 38.7306L37.5365 36.1234C37.4763 36.0219 37.4368 35.9096 37.42 35.7929C37.4033 35.6761 37.4097 35.5572 37.439 35.4429C37.4682 35.3287 37.5197 35.2213 37.5904 35.1269C37.6612 35.0326 37.7499 34.9531 37.8514 34.893C37.9529 34.8329 38.0652 34.7934 38.182 34.7767C38.2987 34.7601 38.4176 34.7666 38.5319 34.796C38.6461 34.8253 38.7535 34.8768 38.8478 34.9477C38.9421 35.0185 39.0215 35.1072 39.0815 35.2088L40.6249 37.816C40.7055 37.9523 40.7487 38.1075 40.75 38.2658C40.7513 38.4241 40.7107 38.58 40.6324 38.7176C40.554 38.8552 40.4407 38.9696 40.3039 39.0493C40.167 39.1289 40.0116 39.171 39.8532 39.1712Z" fill="#00234B"/>
<path d="M33.2467 29.8011C33.0224 29.801 32.7989 29.7726 32.5817 29.7167C31.9308 29.5482 31.3685 29.1382 31.0092 28.5699C30.6498 28.0016 30.5204 27.3178 30.6472 26.6576C30.7741 25.9973 31.1476 25.4101 31.6919 25.0154C32.2362 24.6207 32.9104 24.4481 33.5774 24.5328C34.2444 24.6174 34.8541 24.9529 35.2826 25.4711C35.711 25.9892 35.9261 26.6511 35.8839 27.3221C35.8418 27.9931 35.5457 28.6229 35.0558 29.0834C34.5659 29.5439 33.919 29.8005 33.2467 29.8011ZM33.2407 26.2757C33.05 26.276 32.8649 26.3394 32.714 26.4559C32.5631 26.5724 32.455 26.7355 32.4064 26.9199C32.3579 27.1042 32.3716 27.2994 32.4455 27.4751C32.5194 27.6508 32.6493 27.7972 32.815 27.8914C32.9807 27.9857 33.1729 28.0225 33.3617 27.9962C33.5505 27.9698 33.7253 27.8819 33.8589 27.7459C33.9925 27.6099 34.0774 27.4336 34.1004 27.2444C34.1234 27.0552 34.0832 26.8636 33.9861 26.6996C33.9098 26.5699 33.8009 26.4624 33.67 26.388C33.5392 26.3136 33.3912 26.2749 33.2407 26.2757V26.2757Z" fill="#00234B"/>
<path d="M30.6163 36.5108C30.4759 36.5108 30.3374 36.4777 30.212 36.4145C30.0867 36.3512 29.9779 36.2594 29.8944 36.1464C29.8109 36.0335 29.7551 35.9026 29.7313 35.7641C29.7076 35.6257 29.7167 35.4837 29.7578 35.3494L33.8406 22.0513C33.9105 21.8237 34.068 21.6332 34.2783 21.5216C34.4887 21.4101 34.7347 21.3867 34.9623 21.4566C35.1899 21.5265 35.3805 21.6839 35.492 21.8943C35.6035 22.1046 35.6269 22.3507 35.557 22.5783L31.4742 35.8764C31.4178 36.0599 31.3041 36.2206 31.1497 36.3348C30.9953 36.449 30.8083 36.5107 30.6163 36.5108Z" fill="#00234B"/>
<path d="M22.5324 13.4469C22.3763 13.4471 22.2229 13.4066 22.0873 13.3293C21.9516 13.252 21.8385 13.1407 21.7591 13.0064L19.9401 9.93348C19.88 9.83204 19.8405 9.71975 19.8239 9.60305C19.8072 9.48634 19.8137 9.36749 19.843 9.25329C19.8722 9.13909 19.9237 9.03178 19.9944 8.93747C20.0652 8.84317 20.1538 8.76372 20.2553 8.70366L23.3281 6.88467C23.533 6.76339 23.7777 6.72846 24.0083 6.78757C24.239 6.84668 24.4367 6.99499 24.558 7.19988L26.377 10.2728C26.4981 10.4776 26.5329 10.7222 26.4738 10.9528C26.4146 11.1833 26.2663 11.3809 26.0615 11.5021C25.8567 11.6234 25.6121 11.6583 25.3816 11.5993C25.151 11.5403 24.9533 11.3921 24.8319 11.1874L23.4702 8.887L21.9424 9.79141L23.3041 12.0917C23.3847 12.228 23.4279 12.3832 23.4292 12.5415C23.4305 12.6998 23.3899 12.8557 23.3116 12.9933C23.2332 13.1309 23.1199 13.2453 22.9831 13.325C22.8462 13.4047 22.6908 13.4467 22.5324 13.4469L22.5324 13.4469Z" fill="#00234B"/>
<path d="M19.7124 10.9667C19.5563 10.9668 19.4029 10.9263 19.2672 10.849C19.1316 10.7718 19.0185 10.6605 18.939 10.5261L17.2145 7.61285C17.1545 7.5114 17.115 7.39912 17.0983 7.28241C17.0817 7.16571 17.0881 7.04686 17.1174 6.93266C17.1467 6.81846 17.1982 6.71115 17.2689 6.61684C17.3397 6.52253 17.4283 6.44309 17.5297 6.38303L22.6046 3.37892C22.8095 3.25765 23.0542 3.22272 23.2848 3.28184C23.5154 3.34095 23.7131 3.48925 23.8344 3.69413L25.5589 6.60737C25.619 6.70882 25.6585 6.82111 25.6751 6.93781C25.6918 7.05452 25.6853 7.17337 25.656 7.28757C25.6268 7.40176 25.5753 7.50908 25.5045 7.60339C25.4338 7.69769 25.3452 7.77714 25.2437 7.83719L20.1689 10.8413C20.0307 10.9234 19.8731 10.9667 19.7124 10.9667ZM19.2169 7.47078L20.0268 8.83897L23.5566 6.74945L22.7467 5.38126L19.2169 7.47078Z" fill="#00234B"/>
<path d="M40.1053 11.2259C39.9657 11.2258 39.8281 11.1932 39.7033 11.1307C39.5786 11.0682 39.4701 10.9775 39.3865 10.8658C39.3029 10.754 39.2464 10.6244 39.2216 10.487C39.1968 10.3497 39.2044 10.2085 39.2437 10.0746L39.9982 7.51006L38.2949 7.00893L37.5404 9.57343C37.5071 9.68653 37.4519 9.79197 37.3779 9.88372C37.3038 9.97548 37.2125 10.0518 37.109 10.1082C37.0055 10.1646 36.8919 10.2001 36.7746 10.2127C36.6574 10.2252 36.5389 10.2146 36.4258 10.1813C36.3127 10.148 36.2072 10.0928 36.1155 10.0188C36.0237 9.94474 35.9475 9.85337 35.891 9.74987C35.8346 9.64637 35.7991 9.53277 35.7865 9.41554C35.774 9.29832 35.7847 9.17978 35.8179 9.06668L36.8258 5.64095C36.8591 5.52784 36.9143 5.4224 36.9883 5.33064C37.0623 5.23888 37.1537 5.1626 37.2572 5.10616C37.3607 5.04971 37.4743 5.01421 37.5916 5.00167C37.7088 4.98914 37.8273 4.99981 37.9404 5.03309L41.3662 6.04099C41.4793 6.07426 41.5847 6.12948 41.6765 6.2035C41.7682 6.27752 41.8445 6.36889 41.9009 6.47239C41.9574 6.57589 41.9929 6.6895 42.0054 6.80672C42.018 6.92395 42.0073 7.04249 41.974 7.15559L40.9661 10.5813C40.9114 10.7673 40.798 10.9305 40.6428 11.0467C40.4877 11.1629 40.2991 11.2257 40.1053 11.2259Z" fill="#00234B"/>
<path d="M42.2026 8.12068C42.1168 8.12069 42.0315 8.10839 41.9492 8.08417L36.2916 6.41963C36.1785 6.38636 36.0731 6.33114 35.9813 6.25712C35.8896 6.1831 35.8133 6.09173 35.7569 5.98823C35.7004 5.88473 35.6649 5.77112 35.6524 5.6539C35.6398 5.53667 35.6505 5.41813 35.6838 5.30503L36.6393 2.05726C36.6726 1.94416 36.7278 1.83872 36.8018 1.74696C36.8758 1.65521 36.9672 1.57893 37.0707 1.52248C37.1742 1.46604 37.2878 1.43053 37.405 1.41799C37.5223 1.40546 37.6408 1.41613 37.7539 1.44941L43.4115 3.11395C43.5246 3.14722 43.6301 3.20244 43.7218 3.27646C43.8136 3.35048 43.8899 3.44185 43.9463 3.54535C44.0028 3.64886 44.0383 3.76246 44.0508 3.87969C44.0633 3.99691 44.0527 4.11545 44.0194 4.22855L43.0638 7.47633C43.0091 7.66233 42.8957 7.82563 42.7404 7.94178C42.5852 8.05793 42.3965 8.12069 42.2026 8.12068V8.12068ZM37.6596 4.95056L41.5948 6.10834L42.0435 4.58302L38.1084 3.42524L37.6596 4.95056Z" fill="#00234B"/>
<path d="M20.7218 14.6136C20.6805 14.6136 20.6393 14.6107 20.5984 14.6051C19.0915 14.3987 17.688 13.7227 16.5872 12.6731C15.4864 11.6235 14.7444 10.2538 14.4666 8.75839C14.1887 7.26303 14.3891 5.71812 15.0394 4.34317C15.6897 2.96822 16.7567 1.83315 18.0889 1.09923C19.421 0.365302 20.9506 0.0698457 22.4603 0.254835C23.9699 0.439824 25.3829 1.09585 26.4985 2.12971C27.614 3.16357 28.3754 4.52269 28.6745 6.01396C28.9735 7.50524 28.795 9.05283 28.1643 10.4369C28.1155 10.5442 28.0461 10.6408 27.9599 10.7213C27.8737 10.8018 27.7726 10.8645 27.6622 10.9059C27.5518 10.9472 27.4343 10.9665 27.3165 10.9624C27.1987 10.9584 27.0828 10.9312 26.9755 10.8824C26.8682 10.8336 26.7715 10.7641 26.6911 10.678C26.6106 10.5918 26.5479 10.4907 26.5065 10.3803C26.4651 10.2699 26.4459 10.1524 26.4499 10.0346C26.4539 9.91676 26.4811 9.80088 26.5299 9.69356C27.0046 8.65291 27.1391 7.48914 26.9145 6.36764C26.6899 5.24614 26.1176 4.22395 25.2788 3.44632C24.44 2.6687 23.3775 2.17521 22.2423 2.03597C21.107 1.89673 19.9567 2.11882 18.9549 2.67069C17.9531 3.22257 17.1507 4.07614 16.6617 5.11012C16.1727 6.1441 16.022 7.30589 16.2311 8.4304C16.4401 9.5549 16.9983 10.5849 17.8262 11.3741C18.6541 12.1632 19.7097 12.6714 20.8429 12.8264C21.0682 12.8573 21.2733 12.9726 21.4169 13.149C21.5604 13.3254 21.6317 13.5496 21.6164 13.7765C21.601 14.0034 21.5001 14.216 21.334 14.3713C21.168 14.5267 20.9492 14.6133 20.7218 14.6136Z" fill="#00234B"/>
</svg>
