<svg width="133" height="133" fill="none" xmlns="http://www.w3.org/2000/svg"><path d="M66.5 133c36.727 0 66.5-29.773 66.5-66.5C133 29.773 103.227 0 66.5 0 29.773 0 0 29.773 0 66.5 0 103.227 29.773 133 66.5 133z" fill="#DEEEFE"/><path d="M91.088 67.797V63.06h4.076a1.012 1.012 0 001.013-1.014v-5.621a1.013 1.013 0 00-1.013-1.013H72.972a1.013 1.013 0 00-1.013 1.013v5.621a1.013 1.013 0 001.013 1.014h4.075v4.738a9.701 9.701 0 00-9.196 9.688v32.636a4.806 4.806 0 004.805 4.805H95.48a4.805 4.805 0 004.805-4.805V77.485a9.7 9.7 0 00-9.196-9.688z" fill="#BCD0E7"/><path d="M100.284 110.121V77.485a9.7 9.7 0 00-9.196-9.688V63.06h4.076a1.013 1.013 0 001.013-1.014v-5.621a1.013 1.013 0 00-1.013-1.013H83.908a1.013 1.013 0 00-1.013 1.013v5.621a1.013 1.013 0 001.013 1.014h1.49v4.74h2.543a9.7 9.7 0 00-9.154 9.686v32.636a4.806 4.806 0 004.805 4.805H95.48a4.805 4.805 0 004.804-4.805z" fill="#fff"/><path d="M93.336 77.248H68.599v21.475h24.737V77.248z" fill="#BCD0E7"/><path d="M69.73 91.1h-2.255V42.033c0-1.294-1.03-2.343-2.3-2.343h-3.52v-.014c.003-2.65-2.086-4.8-4.668-4.804l-.46-2.972c-.13-.832-.828-1.445-1.649-1.447h-.11l-3.032-.004h-.16l-3.142-.005a1.651 1.651 0 00-1.245.568 1.729 1.729 0 00-.412.88l-.368 2.354-.097.611c-2.58-.004-4.676 2.141-4.68 4.79v.043h-3.35c-1.27 0-2.3 1.049-2.3 2.343V91.1h-2.253a1.013 1.013 0 00-1.013 1.013v5.622a1.013 1.013 0 001.013 1.013h9.508l1.153 8.498h-3.758a1.012 1.012 0 00-1.013 1.013v5.621a1.014 1.014 0 001.013 1.014h22.192a1.013 1.013 0 001.013-1.014v-5.621a1.014 1.014 0 00-1.013-1.013h-3.758l1.153-8.498h9.51a1.013 1.013 0 001.014-1.013v-5.622a1.013 1.013 0 00-1.014-1.013z" fill="#BCD0E7"/><path d="M65.174 39.69h-3.52v-.014c.004-2.65-2.085-4.8-4.667-4.804l-.46-2.972a1.69 1.69 0 00-1.53-1.442 1.67 1.67 0 00-.91.42l-.688-.063v-.364l-1.663-.002h-.16l-.594-.001v4.795a4.672 4.672 0 00-2.57 4.167v.107h.003v.173H45.06c-1.27 0-2.3 1.015-2.3 2.268v48.37h11.453v8.653c-2.45.017-4.268.032-4.268.032l1.022 7.548s1.962-.015 4.448-.029v.713h-8.004a1.013 1.013 0 00-1.014 1.014v4.634a1.27 1.27 0 001.269 1.268h16.13c.027-.091.04-.186.04-.281v-5.621a1.014 1.014 0 00-1.013-1.014h-3.758l1.153-8.497h.463v-8.42h6.793V42.032c0-1.293-1.03-2.342-2.3-2.342z" fill="#fff"/><path d="M95.48 115.684H72.655a5.566 5.566 0 01-5.563-5.563V77.485c0-5.767 4.692-10.46 10.459-10.46h13.031c5.767 0 10.459 4.693 10.459 10.46v32.636a5.567 5.567 0 01-5.563 5.563zM77.551 68.542c-4.931 0-8.943 4.012-8.943 8.943v32.636a4.05 4.05 0 004.047 4.047H95.48a4.05 4.05 0 004.047-4.047V77.485c0-4.931-4.012-8.943-8.942-8.943H77.552z" fill="#00234B"/><path d="M91.088 68.387H77.047a.758.758 0 01-.758-.758v-4.445a.758.758 0 01.758-.759h14.041a.758.758 0 01.759.759v4.445a.758.758 0 01-.759.758zm-13.283-1.516H90.33v-2.93H77.805v2.93zM100.284 77.94H67.851a.758.758 0 010-1.516h32.433a.758.758 0 110 1.517zM92.499 85.31H75.39a.76.76 0 110-1.521h17.108a.76.76 0 010 1.52zM90.098 91.65H77.791a.76.76 0 010-1.521h12.307a.76.76 0 110 1.521zM99.902 97.867H68.233v10.145h31.67V97.867z" fill="#00234B"/><path d="M95.164 63.816H72.972a1.774 1.774 0 01-1.772-1.771v-5.622a1.774 1.774 0 011.772-1.771h22.192a1.773 1.773 0 011.771 1.771v5.622a1.774 1.774 0 01-1.771 1.771zm-22.192-7.648a.255.255 0 00-.255.255v5.622a.255.255 0 00.255.255h22.192a.255.255 0 00.254-.255v-5.622a.255.255 0 00-.254-.255H72.972zM36.709 56.393a.76.76 0 01-.004-1.521l5.133-.023h.003a.76.76 0 01.004 1.52l-5.133.024h-.003zM36.709 66.04a.761.761 0 01-.004-1.521l3.487-.016h.003a.76.76 0 01.004 1.521l-3.487.016h-.003zM36.709 75.699a.76.76 0 01-.004-1.522l5.133-.023h.003a.76.76 0 01.004 1.521l-5.133.024h-.003zM36.709 85.345a.76.76 0 01-.004-1.521l3.487-.016h.003a.76.76 0 01.004 1.521l-3.487.016h-.003zM36.709 46.735a.76.76 0 01-.004-1.521l3.487-.016h.003a.76.76 0 01.004 1.52l-3.487.017h-.003zM55.049 67.019a6.723 6.723 0 01-6.364-4.55.76.76 0 011.44-.491 5.205 5.205 0 009.851-.008.76.76 0 111.44.489 6.72 6.72 0 01-6.367 4.56zM49.54 59.554c-1.581 0-2.979-1.43-3.648-3.73a.76.76 0 111.46-.425c.459 1.576 1.338 2.634 2.187 2.634.85 0 1.729-1.058 2.187-2.634a.76.76 0 111.46.425c-.668 2.3-2.066 3.73-3.647 3.73zM60.562 59.554c-1.58 0-2.978-1.43-3.647-3.73a.76.76 0 011.46-.425c.458 1.576 1.337 2.634 2.187 2.634.85 0 1.728-1.058 2.186-2.634a.76.76 0 111.461.425c-.669 2.3-2.066 3.73-3.647 3.73z" fill="#00234B"/><path d="M67.475 91.805H35.981a.759.759 0 01-.758-.758V41.991a3.063 3.063 0 013.059-3.06h26.892a3.063 3.063 0 013.06 3.06v49.056a.758.758 0 01-.759.758zM36.74 90.29h29.978V41.99a1.545 1.545 0 00-1.543-1.543H38.282a1.544 1.544 0 00-1.543 1.543v48.298z" fill="#00234B"/><path d="M69.73 99.506h-36a1.773 1.773 0 01-1.772-1.771v-5.622a1.774 1.774 0 011.771-1.771h36a1.773 1.773 0 011.772 1.771v5.622a1.773 1.773 0 01-1.772 1.771zm-36-7.648a.255.255 0 00-.256.255v5.622a.256.256 0 00.255.255h36a.255.255 0 00.255-.255v-5.622a.255.255 0 00-.255-.255h-36zM62.824 115.652H40.632a1.776 1.776 0 01-1.771-1.772v-5.621a1.773 1.773 0 011.771-1.772h22.192a1.776 1.776 0 011.772 1.772v5.621a1.773 1.773 0 01-1.772 1.772zm-22.192-7.648a.254.254 0 00-.255.255v5.621a.254.254 0 00.255.255h22.192a.254.254 0 00.255-.255v-5.621a.254.254 0 00-.255-.255H40.632z" fill="#00234B"/><path d="M59.038 108.001a.762.762 0 01-.75-.872l1.252-8.23a.76.76 0 011.5.229l-1.253 8.229a.76.76 0 01-.749.644zM44.418 108.001a.757.757 0 01-.749-.644l-1.252-8.23a.759.759 0 111.499-.227l1.253 8.229a.757.757 0 01-.75.872zM51.728 30.699a.758.758 0 01-.758-.758V18.074a.758.758 0 011.517 0v11.867a.758.758 0 01-.759.758z" fill="#00234B"/><path d="M41.638 40.289a.758.758 0 01-.758-.758v-.107a5.44 5.44 0 014.78-5.393l.368-2.296a2.42 2.42 0 012.4-2.045h3.142a.758.758 0 010 1.517h-3.143a.91.91 0 00-.902.769l-.464 2.895a.758.758 0 01-.749.638 3.92 3.92 0 00-3.915 3.915v.107a.758.758 0 01-.759.758z" fill="#00234B"/><path d="M67.475 91.805H35.981a.759.759 0 01-.758-.758V41.991a3.063 3.063 0 013.059-3.06h26.892a3.063 3.063 0 013.06 3.06v49.056a.758.758 0 01-.759.758zM36.74 90.29h29.978V41.99a1.545 1.545 0 00-1.543-1.543H38.282a1.544 1.544 0 00-1.543 1.543v48.298z" fill="#00234B"/><path d="M69.73 99.506h-36a1.773 1.773 0 01-1.772-1.771v-5.622a1.774 1.774 0 011.771-1.771h36a1.773 1.773 0 011.772 1.771v5.622a1.773 1.773 0 01-1.772 1.771zm-36-7.648a.255.255 0 00-.256.255v5.622a.256.256 0 00.255.255h36a.255.255 0 00.255-.255v-5.622a.255.255 0 00-.255-.255h-36zM62.824 115.652H40.632a1.776 1.776 0 01-1.771-1.772v-5.621a1.773 1.773 0 011.771-1.772h22.192a1.776 1.776 0 011.772 1.772v5.621a1.773 1.773 0 01-1.772 1.772zm-22.192-7.648a.254.254 0 00-.255.255v5.621a.254.254 0 00.255.255h22.192a.254.254 0 00.255-.255v-5.621a.254.254 0 00-.255-.255H40.632z" fill="#00234B"/><path d="M59.037 108.001a.756.756 0 01-.157-.016c-.82-.064-9.048-.026-14.455.016a.757.757 0 01-.756-.644l-1.252-8.23a.76.76 0 01.742-.872c.043 0 4.295-.037 8.51-.055 2.477-.011 4.458-.013 5.886-.007.852.004 1.515.01 1.973.02.854.018 1.056.022 1.298.265a.759.759 0 01.214.65l-1.253 8.229a.76.76 0 01-.75.644zm-.534-.22v.001-.001zm0-.001v.001-.001zm-.002-.001l.001.001v-.001zm-14.453-8.014l1.022 6.715c1.212-.009 3.921-.027 6.613-.038 2.115-.008 3.806-.01 5.025-.005.727.003 1.293.008 1.683.015l1.024-6.726c-2.392-.045-9.844-.007-15.367.038zM61.654 40.303l-20.023-.028a.759.759 0 01-.757-.76v-.106a5.44 5.44 0 014.787-5.386l.371-2.296a2.42 2.42 0 012.399-2.04h.004l6.444.008a2.42 2.42 0 012.397 2.048l.365 2.297a5.44 5.44 0 014.772 5.4v.105a.758.758 0 01-.758.758zM42.447 38.76l18.397.025a3.922 3.922 0 00-3.857-3.269.758.758 0 01-.747-.639l-.461-2.896a.91.91 0 00-.9-.77l-6.446-.008a.909.909 0 00-.902.767l-.47 2.895a.758.758 0 01-.748.636h-.006a3.922 3.922 0 00-3.86 3.259z" fill="#00234B"/><path d="M53.12 85.594a1.908 1.908 0 100-3.816 1.908 1.908 0 000 3.816zM58.89 80.887a3.811 3.811 0 100-7.622 3.811 3.811 0 000 7.622z" fill="#BCD0E7"/><path d="M69.68 91.1H40.32c-.456 0-.826.454-.826 1.013v4.581a1.36 1.36 0 001.364 1.36l29.647-.091v-5.85c0-.56-.37-1.013-.826-1.013z" fill="#fff"/><path d="M69.73 99.506h-36a1.773 1.773 0 01-1.772-1.771v-5.622a1.774 1.774 0 011.771-1.771h36a1.773 1.773 0 011.772 1.771v5.622a1.773 1.773 0 01-1.772 1.771zm-36-7.648a.255.255 0 00-.256.255v5.622a.256.256 0 00.255.255h36a.255.255 0 00.255-.255v-5.622a.255.255 0 00-.255-.255h-36z" fill="#00234B"/></svg>