<svg width="85" height="85" viewBox="0 0 85 85" fill="none" xmlns="http://www.w3.org/2000/svg">
<path d="M42.4998 42.5904C42.5233 42.5896 42.5455 42.5798 42.5617 42.5629C42.578 42.546 42.5871 42.5235 42.5871 42.5001C42.5871 42.4766 42.578 42.4541 42.5617 42.4372C42.5455 42.4204 42.5233 42.4105 42.4998 42.4097C42.4764 42.4105 42.4542 42.4204 42.438 42.4372C42.4217 42.4541 42.4126 42.4766 42.4126 42.5001C42.4126 42.5235 42.4217 42.546 42.438 42.5629C42.4542 42.5798 42.4764 42.5896 42.4998 42.5904Z" fill="#00234B"/>
<path d="M42.4999 79.9838C63.2017 79.9838 79.9837 63.2018 79.9837 42.5001C79.9837 21.7984 63.2017 5.0163 42.4999 5.0163C21.7982 5.0163 5.01617 21.7984 5.01617 42.5001C5.01617 63.2018 21.7982 79.9838 42.4999 79.9838Z" fill="#FFD5A2"/>
<path d="M74.0662 68.7762C74.0896 68.7754 74.1118 68.7655 74.1281 68.7486C74.1444 68.7318 74.1535 68.7093 74.1535 68.6858C74.1535 68.6624 74.1444 68.6399 74.1281 68.623C74.1118 68.6061 74.0896 68.5963 74.0662 68.5955C74.0428 68.5963 74.0206 68.6061 74.0043 68.623C73.988 68.6399 73.9789 68.6624 73.9789 68.6858C73.9789 68.7093 73.988 68.7318 74.0043 68.7486C74.0206 68.7655 74.0428 68.7754 74.0662 68.7762Z" fill="#00234B"/>
<path d="M50.0332 6.87292H67.5353C68.1649 6.87292 68.7687 7.12305 69.214 7.56827C69.6592 8.01349 69.9093 8.61734 69.9093 9.24697V81.5475C69.9093 81.8593 69.8479 82.168 69.7286 82.456C69.6093 82.7441 69.4344 83.0058 69.214 83.2262C68.9935 83.4467 68.7318 83.6216 68.4438 83.7409C68.1557 83.8602 67.847 83.9216 67.5353 83.9216H17.4644C17.1526 83.9216 16.8439 83.8602 16.5558 83.7409C16.2678 83.6216 16.0061 83.4467 15.7856 83.2262C15.5652 83.0058 15.3903 82.7441 15.271 82.456C15.1517 82.168 15.0903 81.8593 15.0903 81.5475V9.24697C15.0903 8.61734 15.3404 8.01349 15.7856 7.56827C16.2309 7.12305 16.8347 6.87292 17.4644 6.87292H34.9664" fill="white"/>
<path d="M47.4435 8.81539H67.3196V83.49C67.3196 84.8012 14.8747 83.3404 14.8747 83.3404C13.5635 83.3404 15.0905 5.81196 14.8747 7.75437L25.8076 6.9057L34.188 7.52452" fill="#FFD5A2"/>
<path d="M34.9027 8.63222L35.9067 4.76065L38.4676 2.20855L43.292 1.58728L47.6944 3.06981L49.508 5.51969L50.3281 9.17174L38.6237 11.4379L34.9027 8.63222Z" fill="#FFD5A2"/>
<path d="M28.5582 12.647L20.2266 12.7052L20.0756 68.1741L20.6098 77.0084H31.8064H49.447L64.3552 77.8361L63.4113 62.1626L63.9337 39.117L63.9071 12.647L56.2719 12.6188L58.4888 16.8807L58.8839 19.5239L25.2355 19.7828V17.5387L28.5582 12.647Z" fill="white"/>
<path d="M21.9857 13.0534C21.6843 13.044 21.3695 13.0373 21.0976 13.1675C20.4844 13.4609 20.3706 14.27 20.3434 14.9492C19.969 24.3157 20.6094 33.6884 20.9377 43.0566C21.164 49.5163 21.2418 55.9881 20.8491 62.4398C22.0455 61.061 23.7344 60.2057 25.5539 60.0571C26.5683 59.9793 27.5949 60.126 28.6026 59.9853C29.9413 59.7984 31.1521 59.1205 32.4129 58.6331C33.7152 58.1297 35.1201 57.8096 36.2456 56.9834C37.3711 56.1572 38.1373 54.5976 37.5171 53.3468C36.8105 51.9217 34.8281 51.7006 33.7413 50.5391C32.3188 49.019 32.8705 46.4681 31.7941 44.686C31.225 43.744 30.2224 43.0607 29.8959 42.0097C29.4806 40.6731 30.2963 39.3071 30.9236 38.056C31.9566 35.9956 32.5396 33.7383 33.4959 31.6412C34.4521 29.544 35.8946 27.5226 38.0167 26.623C39.9736 25.7933 42.1977 26.0347 44.3077 26.2908C45.5356 26.4397 46.7836 26.5941 47.917 27.0892C49.1661 27.6347 50.211 28.5693 51.0894 29.6115C52.1639 30.8865 53.0359 32.3851 53.2927 34.0325C53.4863 35.2744 53.3241 36.5409 53.1617 37.7873C52.758 40.8862 52.3544 43.9852 51.9507 47.0842C51.7761 48.4246 51.5935 49.7922 51.0011 51.0072C50.4586 52.1197 49.5591 53.1881 49.7013 54.4176C49.8892 56.0416 51.7158 56.8562 53.2715 57.3584L64.3139 60.9232C64.423 58.307 64.658 55.7002 65.019 53.1027C65.2219 51.6439 64.5758 50.0766 64.5783 48.6037C64.5803 47.444 65.3223 46.3971 65.2104 45.2428C64.2035 34.8544 66.0492 24.2967 64.5073 13.974C64.4603 13.6595 64.4006 13.325 64.183 13.0931C63.835 12.7224 63.2457 12.7627 62.7419 12.8311L57.1585 13.5895C58.3602 15.4292 59.0977 17.5329 59.3077 19.7202C55.1881 19.8958 51.0253 20.0686 46.9735 19.3037C45.7478 19.0724 44.8684 19.6169 43.6216 19.6564C42.1973 19.7015 40.4861 19.3474 39.0833 19.5977C37.7289 19.8393 36.3446 19.839 34.9688 19.838L26.4223 19.8319C26.0567 19.8317 25.6243 19.7956 25.437 19.4816C25.3091 19.2671 25.3467 18.9961 25.3958 18.7513C25.5769 17.8531 25.8588 16.9782 26.2362 16.1433C26.4801 15.6032 27.7076 14.1986 27.6614 13.683C27.5807 12.7817 23.0101 13.0853 21.9857 13.0534Z" fill="white"/>
<path d="M41.7758 1.58728C41.7758 1.58728 47.4515 2.42731 47.8633 8.82252C47.9888 10.7714 49.7455 12.2419 51.4013 13.2774C53.3046 14.4679 55.5214 16.5621 55.7175 19.9181L58.6666 19.8952L58.2715 17.2291L56.0546 12.93L51.2527 10.046L50.1245 6.87293L47.8173 4.11085L46.685 2.30293L44.05 1.58728H41.7758Z" fill="white"/>
<path d="M42.4313 11.438C43.6828 11.438 44.6974 10.4234 44.6974 9.17184C44.6974 7.92029 43.6828 6.9057 42.4313 6.9057C41.1797 6.9057 40.1651 7.92029 40.1651 9.17184C40.1651 10.4234 41.1797 11.438 42.4313 11.438Z" fill="white"/>
<path d="M62.1462 83.2451H64.9555C65.5851 83.2451 66.1889 82.995 66.6342 82.5498C67.0794 82.1046 67.3295 81.5007 67.3295 80.8711V76.6786L68.294 80.4967L68.0917 84.5056L63.2543 84.3147L62.1462 83.2451Z" fill="white"/>
<path d="M50.093 52.3583L51.5694 46.7479L53.0815 41.0019C53.5265 39.3376 53.6754 37.608 53.5214 35.8921C52.941 29.7048 48.5396 25.2784 41.6744 25.7795C32.9575 26.4158 31.6626 34.6 31.4803 36.4667C31.4552 36.7261 31.3757 36.9772 31.2469 37.2037L29.7344 39.8599C29.5234 40.2305 29.4471 40.6626 29.5186 41.083C29.5901 41.5034 29.805 41.8861 30.1266 42.166L31.6572 43.4982C32.0262 43.8194 32.2527 44.2739 32.2869 44.7619L32.5455 48.457C32.5785 48.9279 32.7377 49.3812 33.0064 49.7693C33.2752 50.1574 33.6435 50.4659 34.0727 50.6624L37.6455 52.2982V55.9663L21.1518 62.3071V77.9095H64.3445V61.4384L50.093 55.9663V52.2982" fill="#FFD5A2"/>
<path d="M67.5352 84.8193H17.4644C16.5969 84.8184 15.7653 84.4733 15.152 83.86C14.5386 83.2466 14.1936 82.415 14.1926 81.5476V9.247C14.1936 8.37957 14.5386 7.54795 15.152 6.93459C15.7653 6.32123 16.5969 5.97621 17.4644 5.97522H34.9664C35.2043 5.97542 35.4325 6.07008 35.6007 6.23842C35.7689 6.40676 35.8634 6.63499 35.8634 6.87295C35.8634 7.11092 35.7689 7.33915 35.6007 7.50748C35.4325 7.67582 35.2043 7.77049 34.9664 7.77068H17.4644C17.073 7.77112 16.6977 7.92681 16.4209 8.20357C16.1442 8.48034 15.9885 8.85559 15.9881 9.247V81.5476C15.9885 81.939 16.1442 82.3142 16.4209 82.591C16.6977 82.8678 17.073 83.0234 17.4644 83.0239H67.5352C67.9266 83.0234 68.3019 82.8677 68.5786 82.591C68.8554 82.3142 69.0111 81.939 69.0115 81.5476V9.247C69.0111 8.85559 68.8554 8.48034 68.5786 8.20358C68.3019 7.92681 67.9266 7.77113 67.5352 7.77068H50.0332C49.7953 7.77049 49.5671 7.67582 49.3989 7.50748C49.2307 7.33915 49.1362 7.11092 49.1362 6.87295C49.1362 6.63499 49.2307 6.40676 49.3989 6.23842C49.5671 6.07008 49.7953 5.97541 50.0332 5.97522H67.5352C68.4026 5.9762 69.2343 6.32123 69.8476 6.93459C70.461 7.54795 70.806 8.37957 70.807 9.247V81.5476C70.806 82.415 70.461 83.2466 69.8476 83.86C69.2343 84.4733 68.4026 84.8184 67.5352 84.8193Z" fill="#00234B"/>
<path d="M20.6098 78.7787C20.4916 78.7787 20.3746 78.7554 20.2654 78.7101C20.1563 78.6647 20.0571 78.5983 19.9737 78.5145C19.8903 78.4308 19.8243 78.3314 19.7794 78.2221C19.7345 78.1128 19.7116 77.9956 19.7121 77.8775L19.7472 68.9665V12.9584C19.7472 12.8405 19.7705 12.7238 19.8156 12.6149C19.8607 12.5059 19.9268 12.407 20.0102 12.3236C20.0935 12.2402 20.1925 12.1741 20.3014 12.129C20.4103 12.0839 20.5271 12.0607 20.645 12.0607H28.7268C28.9647 12.0609 29.1929 12.1555 29.3611 12.3239C29.5293 12.4922 29.6238 12.7204 29.6238 12.9584C29.6238 13.1964 29.5293 13.4246 29.3611 13.5929C29.1929 13.7613 28.9647 13.8559 28.7268 13.8561H21.5427V68.9701L21.5111 76.9824L63.4575 76.9392V13.8561H56.3521C56.2341 13.8562 56.1173 13.8331 56.0083 13.788C55.8993 13.7429 55.8002 13.6768 55.7168 13.5935C55.6334 13.5101 55.5672 13.4111 55.522 13.3021C55.4768 13.1932 55.4536 13.0764 55.4536 12.9584C55.4536 12.8404 55.4768 12.7236 55.522 12.6147C55.5672 12.5057 55.6334 12.4067 55.7168 12.3233C55.8002 12.24 55.8993 12.1739 56.0083 12.1288C56.1173 12.0837 56.2341 12.0606 56.3521 12.0607H64.3552C64.4731 12.0607 64.5899 12.0839 64.6988 12.129C64.8077 12.1741 64.9067 12.2402 64.99 12.3236C65.0734 12.407 65.1395 12.5059 65.1846 12.6149C65.2298 12.7238 65.253 12.8405 65.253 12.9584V77.836C65.253 78.0739 65.1585 78.3021 64.9904 78.4705C64.8222 78.6388 64.5941 78.7335 64.3562 78.7337L20.6107 78.7787H20.6098Z" fill="#00234B"/>
<path d="M59.3339 20.9686H25.6656C25.5478 20.9686 25.431 20.9453 25.3221 20.9002C25.2132 20.8551 25.1142 20.789 25.0309 20.7056C24.9475 20.6223 24.8814 20.5233 24.8362 20.4144C24.7911 20.3055 24.7679 20.1887 24.7679 20.0708V19.9059C24.7687 18.0465 25.2991 16.2257 26.2971 14.6569C27.2946 13.0906 28.702 11.8274 30.3665 11.0044C31.6075 10.3879 32.6188 9.54028 33.291 8.55301C33.6437 8.03514 33.8466 7.4119 34.0615 6.75211C34.1994 6.3286 34.342 5.89067 34.5321 5.45478C35.032 4.29486 35.7727 3.25442 36.7051 2.40243C38.2962 0.972064 40.3602 0.180731 42.4998 0.180725C44.6393 0.18072 46.7033 0.972043 48.2944 2.4024C49.2269 3.25441 49.9676 4.29488 50.4675 5.45484C50.6576 5.89067 50.8002 6.3286 50.9381 6.75211C51.153 7.41193 51.3559 8.03514 51.7085 8.55301C52.3808 9.54028 53.3921 10.3879 54.633 11.0043L54.6331 11.0044C56.2976 11.8274 57.705 13.0906 58.7025 14.6568C59.7005 16.2257 60.2309 18.0465 60.2317 19.9059V20.0708C60.2317 20.1887 60.2085 20.3055 60.1633 20.4144C60.1182 20.5233 60.0521 20.6223 59.9687 20.7056C59.8854 20.789 59.7864 20.8551 59.6775 20.9002C59.5686 20.9453 59.4518 20.9686 59.3339 20.9686ZM26.5967 19.1731H58.4029C58.1481 16.3803 56.4464 13.9099 53.8343 12.6123C52.318 11.8592 51.0697 10.805 50.2245 9.56358C49.7279 8.83428 49.4752 8.05838 49.2309 7.30802C49.1004 6.90745 48.9772 6.52906 48.8218 6.17273C48.4248 5.24766 47.8357 4.41751 47.0937 3.73727C45.8322 2.60344 44.1959 1.97618 42.4998 1.97619C40.8036 1.9762 39.1674 2.60346 37.9059 3.7373C37.1639 4.41753 36.5748 5.24765 36.1778 6.17267C36.0224 6.52906 35.8991 6.90742 35.7687 7.30802C35.5244 8.05838 35.2717 8.83431 34.7751 9.56358C33.9298 10.8049 32.6816 11.8592 31.1653 12.6124C28.5532 13.9099 26.8515 16.3803 26.5967 19.1731Z" fill="#00234B"/>
<path d="M42.4312 12.3356C41.8055 12.3356 41.1938 12.15 40.6735 11.8024C40.1532 11.4547 39.7476 10.9606 39.5082 10.3825C39.2687 9.80436 39.206 9.16821 39.3281 8.55447C39.4502 7.94073 39.7515 7.37698 40.194 6.9345C40.6365 6.49202 41.2002 6.19069 41.8139 6.06861C42.4277 5.94653 43.0638 6.00918 43.642 6.24865C44.2201 6.48812 44.7142 6.89364 45.0619 7.41394C45.4095 7.93424 45.5951 8.54595 45.5951 9.17171C45.5941 10.0105 45.2605 10.8147 44.6674 11.4078C44.0742 12.001 43.27 12.3346 42.4312 12.3356ZM42.4312 7.80328C42.1606 7.80327 41.896 7.88352 41.671 8.03388C41.4459 8.18423 41.2705 8.39795 41.167 8.64799C41.0634 8.89803 41.0363 9.17317 41.0891 9.43862C41.1419 9.70407 41.2722 9.9479 41.4636 10.1393C41.6549 10.3307 41.8988 10.461 42.1642 10.5138C42.4296 10.5666 42.7048 10.5395 42.9548 10.4359C43.2049 10.3324 43.4186 10.157 43.569 9.93195C43.7193 9.70692 43.7996 9.44235 43.7996 9.17171C43.7992 8.80891 43.6549 8.4611 43.3984 8.20456C43.1418 7.94802 42.794 7.80371 42.4312 7.80328Z" fill="#00234B"/>
<path d="M64.3442 62.3363C64.2343 62.3363 64.1252 62.316 64.0226 62.2764L49.7711 56.8043C49.6017 56.7392 49.4559 56.6243 49.3531 56.4747C49.2503 56.3251 49.1952 56.1478 49.1952 55.9662V52.2981C49.1952 52.06 49.2898 51.8317 49.4581 51.6633C49.6265 51.495 49.8548 51.4004 50.0929 51.4004C50.331 51.4004 50.5594 51.495 50.7277 51.6633C50.8961 51.8317 50.9907 52.06 50.9907 52.2981V55.3493L64.6662 60.6003C64.862 60.6755 65.0253 60.8168 65.1277 60.9998C65.2301 61.1828 65.2653 61.3959 65.227 61.6022C65.1888 61.8084 65.0796 61.9947 64.9183 62.1288C64.7571 62.2629 64.554 62.3363 64.3442 62.3363Z" fill="#00234B"/>
<path d="M21.1521 63.205C20.9424 63.205 20.7394 63.1316 20.5781 62.9976C20.4169 62.8635 20.3076 62.6772 20.2693 62.4711C20.231 62.2649 20.2661 62.0518 20.3685 61.8688C20.4709 61.6858 20.6341 61.5444 20.8298 61.4691L36.7479 55.3496V52.8744L33.6992 51.4787C33.1232 51.2152 32.6289 50.8013 32.2683 50.2806C31.9077 49.7598 31.6942 49.1515 31.6501 48.5196L31.3915 44.8245C31.3831 44.7003 31.3502 44.579 31.2947 44.4676C31.2392 44.3562 31.1622 44.2569 31.0681 44.1754L29.5374 42.8431C29.0606 42.4262 28.7423 41.8575 28.6361 41.2331C28.5299 40.6087 28.6423 39.9667 28.9545 39.4156L30.467 36.7594C30.5334 36.6427 30.5743 36.5132 30.587 36.3795C30.6871 35.3548 31.0845 32.701 32.6102 30.1948C33.4894 28.7508 34.6088 27.5765 35.9374 26.7047C37.5377 25.6545 39.446 25.042 41.6092 24.8841C45.1439 24.626 48.2366 25.5855 50.5535 27.6586C52.7339 29.6096 54.1054 32.5039 54.4154 35.8082C54.5802 37.6289 54.4226 39.4644 53.9499 41.2303L50.9614 52.5867C50.9008 52.817 50.7512 53.0137 50.5456 53.1337C50.3399 53.2537 50.095 53.287 49.8647 53.2264C49.6345 53.1658 49.4377 53.0163 49.3177 52.8106C49.1978 52.6049 49.1644 52.36 49.225 52.1298L52.2136 40.7734C52.6326 39.211 52.7728 37.587 52.6278 35.9759C52.3563 33.0823 51.225 30.6688 49.3562 28.9966C47.411 27.256 44.7768 26.453 41.7399 26.6748C38.3479 26.9224 35.7923 28.4208 34.1439 31.1285C32.8108 33.3182 32.462 35.6521 32.374 36.5539C32.3371 36.939 32.2189 37.3119 32.0272 37.6479L30.5147 40.3041C30.4068 40.4946 30.3679 40.7165 30.4046 40.9323C30.4413 41.1481 30.5514 41.3447 30.7161 41.4888L32.2468 42.8211C32.5191 43.0568 32.742 43.3441 32.9026 43.6665C33.0632 43.9888 33.1584 44.3398 33.1826 44.6991L33.4412 48.3943C33.4628 48.7043 33.5676 49.0028 33.7445 49.2583C33.9215 49.5138 34.164 49.7169 34.4466 49.8462L38.0193 51.4819C38.1757 51.5534 38.3082 51.6684 38.4011 51.8131C38.494 51.9578 38.5434 52.1262 38.5434 52.2981V55.9662C38.5434 56.1477 38.4883 56.3249 38.3856 56.4745C38.2828 56.6241 38.1372 56.739 37.9678 56.8042L21.4741 63.145C21.3714 63.1846 21.2622 63.205 21.1521 63.205Z" fill="#00234B"/>
<path d="M64.3748 65.8311H52.3867V77.8191H64.3748V65.8311Z" fill="white"/>
<path d="M64.3746 78.7167H52.3866C52.2687 78.7167 52.152 78.6935 52.0431 78.6484C51.9342 78.6033 51.8352 78.5371 51.7518 78.4538C51.6685 78.3704 51.6023 78.2714 51.5572 78.1625C51.5121 78.0536 51.4889 77.9369 51.4889 77.819V65.831C51.4889 65.7131 51.5121 65.5964 51.5572 65.4875C51.6023 65.3786 51.6685 65.2796 51.7518 65.1962C51.8352 65.1129 51.9342 65.0467 52.0431 65.0016C52.152 64.9565 52.2687 64.9333 52.3866 64.9333H64.3746C64.4925 64.9333 64.6092 64.9565 64.7181 65.0016C64.827 65.0467 64.926 65.1129 65.0094 65.1962C65.0927 65.2796 65.1589 65.3786 65.204 65.4875C65.2491 65.5964 65.2723 65.7131 65.2723 65.831V77.819C65.2723 77.9369 65.2491 78.0536 65.204 78.1625C65.1589 78.2714 65.0927 78.3704 65.0094 78.4538C64.926 78.5371 64.827 78.6033 64.7181 78.6484C64.6092 78.6935 64.4925 78.7167 64.3746 78.7167ZM53.2844 76.9212H63.4768V66.7288H53.2844V76.9212Z" fill="#00234B"/>
<path d="M58.3806 75.6144C58.2627 75.6144 58.146 75.5911 58.037 75.546C57.9281 75.5009 57.8292 75.4348 57.7458 75.3514C57.6624 75.2681 57.5963 75.1691 57.5512 75.0602C57.5061 74.9513 57.4829 74.8345 57.4829 74.7166V68.9335C57.4831 68.6955 57.5777 68.4674 57.7461 68.2992C57.9144 68.131 58.1426 68.0365 58.3806 68.0365C58.6185 68.0365 58.8468 68.131 59.0151 68.2992C59.1834 68.4674 59.2781 68.6955 59.2783 68.9335V74.7166C59.2783 74.8345 59.2551 74.9513 59.21 75.0602C59.1648 75.1691 59.0987 75.2681 59.0154 75.3514C58.932 75.4348 58.833 75.5009 58.7241 75.546C58.6152 75.5911 58.4985 75.6144 58.3806 75.6144Z" fill="#00234B"/>
<path d="M61.2722 72.7228H55.489C55.2509 72.7228 55.0226 72.6283 54.8542 72.4599C54.6859 72.2915 54.5913 72.0632 54.5913 71.8251C54.5913 71.587 54.6859 71.3587 54.8542 71.1903C55.0226 71.0219 55.2509 70.9274 55.489 70.9274H61.2722C61.5102 70.9274 61.7386 71.0219 61.907 71.1903C62.0753 71.3587 62.1699 71.587 62.1699 71.8251C62.1699 72.0632 62.0753 72.2915 61.907 72.4599C61.7386 72.6283 61.5102 72.7228 61.2722 72.7228Z" fill="#00234B"/>
</svg>
