<svg width="85" height="85" viewBox="0 0 85 85" fill="none" xmlns="http://www.w3.org/2000/svg">
<g clip-path="url(#clip0)">
<path d="M42.4999 79.9838C63.2016 79.9838 79.9837 63.2017 79.9837 42.5C79.9837 21.7983 63.2016 5.01624 42.4999 5.01624C21.7982 5.01624 5.01616 21.7983 5.01616 42.5C5.01616 63.2017 21.7982 79.9838 42.4999 79.9838Z" fill="#FFD5A2"/>
<path d="M41.7389 66.2837C53.0142 66.2837 62.1546 57.1433 62.1546 45.868C62.1546 34.5928 53.0142 25.4524 41.7389 25.4524C30.4637 25.4524 21.3233 34.5928 21.3233 45.868C21.3233 57.1433 30.4637 66.2837 41.7389 66.2837Z" fill="#FFD5A2"/>
<path d="M62.4561 43.7601C62.9896 45.8469 63.0572 48.1161 62.2342 50.1065C61.8565 51.0198 61.3044 51.8482 60.8187 52.709C59.7409 54.619 59.2727 56.7587 58.3016 58.6898C57.5366 60.2109 55.421 61.1375 54.0028 62.0244C51.0952 63.8426 47.7738 66.1969 44.1574 65.8479C41.2801 65.5702 38.2325 64.1905 35.8422 62.6187C30.6356 59.1951 27.1905 53.5038 26.5803 47.3017C25.7265 38.6233 30.577 30.1164 38.4891 26.4413C39.6017 25.9245 40.9226 25.2623 42.1536 25.1082C43.3918 24.9531 44.4915 25.8529 45.7223 26.1528C47.0633 26.4795 48.4784 26.4355 49.8051 26.816C51.2239 27.2229 52.4598 28.0906 53.6464 28.9684C54.7574 29.7902 55.865 30.6468 56.7131 31.7378C57.3708 32.5839 57.8551 33.549 58.3351 34.5071L59.9863 37.8035C60.951 39.7292 61.9227 41.6734 62.4561 43.7601Z" fill="white"/>
<path d="M31.8563 34.166L34.8886 36.0037C35.2079 36.1973 35.454 36.4914 35.588 36.8399C35.7221 37.1885 35.7366 37.5716 35.6293 37.9293L34.8899 40.3941C34.813 40.6504 34.7983 40.9213 34.8468 41.1845C34.8954 41.4476 35.006 41.6954 35.1694 41.9073L38.9375 46.7958C39.095 47 39.2972 47.1654 39.5286 47.2792C39.76 47.393 40.0145 47.4522 40.2724 47.4522H42.7651C43.0517 47.4522 43.3337 47.5253 43.5842 47.6646C43.8347 47.8039 44.0455 48.0049 44.1968 48.2484C44.348 48.4919 44.4346 48.7699 44.4485 49.0562C44.4623 49.3426 44.4029 49.6277 44.2758 49.8846L42.9321 52.6019C42.8161 52.8365 42.7563 53.0949 42.7575 53.3566C42.7587 53.6184 42.8208 53.8762 42.939 54.1097L44.9874 58.159C45.1003 58.3822 45.2616 58.5776 45.4594 58.7307C45.6572 58.8839 45.8867 58.9911 46.1311 59.0446L47.877 59.4265C48.3099 59.5212 48.6881 59.7826 48.9297 60.1542C49.1713 60.5257 49.2568 60.9775 49.1678 61.4116L49.0896 61.7926C48.8206 63.1044 50.115 64.1909 51.3602 63.6986L54.1287 62.604C54.3277 62.5254 54.5099 62.4095 54.6655 62.2627L57.8813 59.2293C58.1405 58.9847 58.3156 58.6643 58.3813 58.314C58.447 57.9638 58.4 57.6017 58.247 57.2798L55.9752 52.5C55.858 52.2534 55.8025 51.982 55.8134 51.7092L56.0589 45.5717C56.0758 45.1476 55.9321 44.7326 55.6564 44.4098C55.3807 44.087 54.9934 43.8802 54.5718 43.8306L50.0478 43.2983C49.6932 43.2566 49.3344 43.3286 49.0234 43.5039L46.5736 44.8847C46.3715 44.9986 46.1481 45.0696 45.9173 45.0931C45.6865 45.1167 45.4534 45.0924 45.2324 45.0217H45.2324C43.7634 44.5516 43.6453 42.5186 45.05 41.8816L46.0829 41.4132C46.4469 41.2481 46.8577 41.2178 47.242 41.3276L47.6864 41.4546C47.929 41.5239 48.1841 41.5378 48.4328 41.4954C48.6816 41.4529 48.9176 41.3552 49.1235 41.2093L49.1412 41.1968C49.4039 41.0107 49.6079 40.7533 49.7289 40.4549C49.8498 40.1566 49.8829 39.8298 49.824 39.5133L49.5843 38.2249C49.5304 37.9354 49.5534 37.6368 49.6508 37.3589L51.267 32.7506C51.3442 32.5304 51.3749 32.2966 51.3571 32.064C51.3392 31.8314 51.2733 31.605 51.1634 31.3992L48.8528 27.0706C48.7233 26.8281 48.5365 26.6209 48.3086 26.4672C48.0807 26.3134 47.8187 26.2177 47.5454 26.1885L41.2793 25.5178C40.8897 25.4761 38.4077 25.2372 38.0808 25.4532L30.2432 31.2537C29.2112 31.9357 30.7984 33.5249 31.8563 34.166Z" fill="#FFD5A2"/>
<path d="M43.5763 30.0562L44.7266 38.8946L51.7283 33.3795C58.157 33.9666 64.4841 30.3464 67.0476 24.0581C70.1893 16.3516 66.4888 7.55755 58.7824 4.41592C51.0759 1.27428 42.2818 4.97476 39.1402 12.6812C36.5767 18.9695 38.5694 25.9814 43.5763 30.0562Z" fill="#FFD5A2"/>
<path d="M41.7038 67.1836C36.1045 67.1823 30.7274 64.9925 26.7203 61.0815C22.7132 57.1706 20.3934 51.8483 20.256 46.2506C20.1187 40.653 22.1748 35.2234 25.9853 31.1206C29.7958 27.0179 35.0591 24.5671 40.6516 24.2912C46.2441 24.0154 51.723 25.9363 55.9188 29.6442C60.1146 33.352 62.695 38.5529 63.1092 44.1369C63.5234 49.7209 61.7387 55.2456 58.1359 59.5319C54.5331 63.8182 49.3976 66.5266 43.8256 67.0789C43.1161 67.1487 42.4089 67.1836 41.7038 67.1836ZM41.7745 26.348C41.1285 26.348 40.4797 26.3799 39.8279 26.4438C34.8444 26.9348 30.2403 29.3223 26.9677 33.1126C23.6952 36.9028 22.0045 41.8059 22.2453 46.8076C22.4861 51.8094 24.6401 56.5273 28.2617 59.9856C31.8833 63.4439 36.6955 65.378 41.7031 65.3879C42.3491 65.3879 42.998 65.356 43.6498 65.2921C48.6333 64.8011 53.2374 62.4136 56.51 58.6233C59.7826 54.8331 61.4733 49.93 61.2324 44.9282C60.9916 39.9265 58.8376 35.2086 55.216 31.7503C51.5943 28.292 46.7821 26.3579 41.7745 26.348Z" fill="#00234B"/>
<path d="M40.2858 72.1767L38.2754 76.1685H33.6458C33.1587 76.1651 32.6815 76.3057 32.2741 76.5726C31.8667 76.8396 31.5473 77.221 31.356 77.6689L28.6711 84.1171H56.9648L54.2799 77.6689C54.0886 77.221 53.7692 76.8396 53.3618 76.5726C52.9543 76.3057 52.4771 76.1651 51.9901 76.1685H47.3605L45.3501 72.1767L45.2627 71.985" fill="#FFD5A2"/>
<path d="M41.8444 76.1684H37.2148C36.7278 76.165 36.2506 76.3056 35.8432 76.5726C35.4358 76.8395 35.1163 77.2209 34.925 77.6689L32.2402 84.117H52.9033C53.8838 84.117 55.2497 84.37 56.1911 84.1172C56.7621 83.9638 56.6342 83.4162 56.6587 82.8085C56.6845 82.167 56.6616 81.5207 56.4978 80.8967C56.2872 80.0944 55.8598 79.3689 55.4373 78.6552L54.2984 76.731C54.1964 76.5588 54.0881 76.3799 53.9181 76.2743C53.6869 76.1306 53.3936 76.1522 53.1227 76.1787L50.538 76.4313C49.6859 76.5146 48.7566 76.5799 48.0437 76.1056C46.973 75.3932 46.9178 73.878 46.4274 72.6891C46.3471 72.4946 46.2468 72.2982 46.077 72.174C45.9098 72.0517 45.6962 72.0147 45.4901 71.9936C44.7289 71.9158 44.0841 71.8583 43.68 72.5239C43.4118 72.9655 43.2075 73.4619 42.9752 73.9232L41.8444 76.1684Z" fill="white"/>
<path d="M33.7328 78.0824H40.8712L43.3966 73.0872L40.2859 72.177L39.0542 75.3568L38.2754 76.2004L35.0956 76.6547L33.7328 78.0824Z" fill="#FFD5A2"/>
<path d="M42.975 73.9236L45.0241 78.4068H49.6485C49.9307 78.4068 50.2064 78.4915 50.4399 78.6499C50.6734 78.8084 50.8539 79.0333 50.9582 79.2955L52.6166 83.4685H31.3964L33.473 79.3802L35.0953 77.6929L41.8443 76.1688L42.975 73.9236Z" fill="#FFD5A2"/>
<path d="M43.8549 72.1767L42.4851 74.8964C44.2907 74.184 45.987 73.2209 47.5239 72.0354L43.8549 72.1767Z" fill="#FFD5A2"/>
<path d="M36.5156 76.2676C36.8441 76.2423 37.1702 76.2093 37.4942 76.1686H37.2149C36.9783 76.1688 36.743 76.2021 36.5156 76.2676Z" fill="#FFD5A2"/>
<path d="M56.9648 85.0149H28.6711C28.5233 85.0149 28.3778 84.9784 28.2475 84.9087C28.1172 84.839 28.0062 84.7382 27.9242 84.6152C27.8422 84.4923 27.7918 84.351 27.7775 84.2039C27.7633 84.0568 27.7855 83.9085 27.8423 83.7721L30.5272 77.3239C30.7852 76.7113 31.2194 76.1891 31.7746 75.8236C32.3298 75.4581 32.9811 75.2657 33.6458 75.2708H37.7223L39.484 71.7729C39.5911 71.5602 39.7783 71.3988 40.0044 71.3242C40.1163 71.2872 40.2345 71.2727 40.352 71.2814C40.4696 71.2901 40.5843 71.3218 40.6896 71.3749C40.7949 71.4279 40.8887 71.5012 40.9657 71.5904C41.0427 71.6797 41.1013 71.7833 41.1383 71.8953C41.1752 72.0072 41.1898 72.1253 41.1811 72.2429C41.1724 72.3605 41.1406 72.4752 41.0876 72.5805L39.0771 76.5723C39.0023 76.7208 38.8878 76.8456 38.7462 76.9328C38.6046 77.02 38.4416 77.0662 38.2753 77.0662H33.6458C33.3358 77.0618 33.0314 77.1495 32.7713 77.3182C32.5112 77.487 32.307 77.7291 32.1847 78.014L30.0173 83.2194H55.6185L53.4512 78.014C53.3288 77.7291 53.1246 77.487 52.8645 77.3182C52.6044 77.1495 52.3001 77.0618 51.9901 77.0662H47.3605C47.1942 77.0662 47.0312 77.02 46.8896 76.9328C46.748 76.8456 46.6335 76.7208 46.5587 76.5723L44.5483 72.5805C44.543 72.5701 44.5379 72.5595 44.5331 72.5489L44.4458 72.3572C44.3472 72.1406 44.3386 71.8936 44.422 71.6707C44.5054 71.4477 44.674 71.267 44.8906 71.1683C45.1072 71.0696 45.3542 71.061 45.5771 71.1443C45.8001 71.2277 45.9809 71.3962 46.0796 71.6127L46.1597 71.7885L47.9135 75.2707H51.9901C52.6548 75.2657 53.306 75.4581 53.8612 75.8236C54.4164 76.1891 54.8506 76.7113 55.1087 77.3239L57.7935 83.7721C57.8503 83.9085 57.8726 84.0568 57.8583 84.2039C57.844 84.351 57.7936 84.4923 57.7117 84.6152C57.6297 84.7382 57.5186 84.839 57.3883 84.9087C57.258 84.9784 57.1125 85.0149 56.9648 85.0149Z" fill="#00234B"/>
<path d="M41.7532 73.1217C41.2354 73.1217 40.7168 73.1069 40.1974 73.0773C33.9172 72.7251 27.9523 70.2109 23.3149 65.9613C18.6775 61.7117 15.6532 55.9885 14.7553 49.7628C13.8575 43.5372 15.1413 37.1927 18.389 31.8059C21.6366 26.4191 26.6481 22.3219 32.5729 20.2095C32.6839 20.1698 32.8017 20.1523 32.9195 20.1581C33.0373 20.1638 33.1528 20.1928 33.2595 20.2432C33.3661 20.2937 33.4617 20.3646 33.5409 20.452C33.6201 20.5394 33.6813 20.6416 33.7209 20.7527C33.7606 20.8638 33.778 20.9816 33.7722 21.0994C33.7663 21.2172 33.7373 21.3327 33.6868 21.4393C33.6362 21.5458 33.5652 21.6414 33.4777 21.7205C33.3902 21.7997 33.288 21.8608 33.1769 21.9004C30.0273 23.0231 27.1298 24.7555 24.6501 26.9985C22.1703 29.2415 20.1567 31.9512 18.7246 34.9727C17.2924 37.9942 16.4697 41.2682 16.3034 44.6078C16.1371 47.9474 16.6305 51.287 17.7554 54.4358C18.8803 57.5847 20.6147 60.481 22.8594 62.9592C25.1041 65.4375 27.8151 67.4491 30.8376 68.8792C33.8601 70.3093 37.1347 71.1298 40.4744 71.2939C43.8141 71.4579 47.1534 70.9622 50.3014 69.8351C50.4125 69.7954 50.5303 69.7779 50.6481 69.7837C50.7659 69.7895 50.8814 69.8184 50.988 69.8688C51.0946 69.9193 51.1902 69.9902 51.2694 70.0777C51.3486 70.1651 51.4098 70.2672 51.4495 70.3783C51.4891 70.4894 51.5065 70.6072 51.5007 70.725C51.4948 70.8428 51.4658 70.9583 51.4153 71.0649C51.3647 71.1714 51.2937 71.267 51.2062 71.3461C51.1188 71.4252 51.0166 71.4863 50.9055 71.5259C47.9693 72.5806 44.8731 73.1205 41.7532 73.1217Z" fill="#00234B"/>
<path d="M50.6033 71.5785C50.4181 71.5784 50.2375 71.5211 50.0861 71.4144C49.9348 71.3077 49.8201 71.1569 49.7578 70.9825L47.7633 65.3996C47.6832 65.1754 47.6955 64.9285 47.7974 64.7133C47.8993 64.4981 48.0825 64.3323 48.3067 64.2522C48.5309 64.1721 48.7778 64.1843 48.993 64.2862C49.2081 64.3881 49.374 64.5713 49.4541 64.7955L51.4486 70.3785C51.4969 70.514 51.512 70.6591 51.4926 70.8016C51.4731 70.9441 51.4197 71.0799 51.3369 71.1975C51.254 71.3151 51.1442 71.4111 51.0165 71.4774C50.8888 71.5437 50.7471 71.5783 50.6033 71.5785Z" fill="#00234B"/>
<path d="M34.8694 27.5362C34.6843 27.5361 34.5037 27.4788 34.3523 27.3721C34.201 27.2655 34.0863 27.1146 34.024 26.9402L32.0295 21.3572C31.9495 21.133 31.9618 20.8863 32.0637 20.6712C32.1657 20.4561 32.3488 20.2902 32.573 20.2102C32.7971 20.1301 33.0439 20.1423 33.2591 20.2441C33.4742 20.346 33.6401 20.5291 33.7203 20.7532L35.7148 26.3362C35.7631 26.4717 35.7782 26.6168 35.7587 26.7593C35.7393 26.9019 35.6859 27.0376 35.603 27.1552C35.5202 27.2728 35.4103 27.3688 35.2827 27.4351C35.155 27.5014 35.0133 27.5361 34.8694 27.5362Z" fill="#00234B"/>
<path d="M45.0221 27.6467L46.1724 36.4851L53.1741 30.9699C59.6028 31.5571 65.9299 27.9368 68.4934 21.6485C71.6351 13.9421 67.9346 5.148 60.2282 2.00637C52.5217 -1.13526 43.7276 2.56522 40.586 10.2716C38.0225 16.5599 40.0152 23.5719 45.0221 27.6467Z" fill="white"/>
<path d="M46.1722 37.3829C45.9542 37.3829 45.7437 37.3035 45.5799 37.1596C45.4161 37.0158 45.3102 36.8172 45.2821 36.601L44.1772 28.1111C41.7043 25.9893 39.933 23.1675 39.097 20.0181C38.3434 17.1496 38.4036 14.1279 39.2709 11.2917C40.1383 8.45548 41.7784 5.91692 44.0076 3.96058C46.2367 2.00424 48.9667 0.707455 51.8915 0.215601C54.8163 -0.276253 57.8203 0.0562671 60.5667 1.17588C63.3131 2.2955 65.6934 4.15795 67.4407 6.55446C69.188 8.95096 70.2332 11.7868 70.4593 14.744C70.6853 17.7013 70.0832 20.663 68.7204 23.2972C67.3577 25.9315 65.2881 28.1341 62.7438 29.6581C60.2529 31.1407 57.4086 31.925 54.5099 31.9283C54.1573 31.9284 53.8052 31.9165 53.4534 31.8927L46.7278 37.1904C46.5695 37.3151 46.3738 37.3829 46.1722 37.3829ZM54.5386 1.78152C52.3706 1.78311 50.2319 2.28177 48.2868 3.23918C46.3417 4.19658 44.642 5.58723 43.3184 7.30423C41.9948 9.02124 41.0825 11.0189 40.6517 13.1436C40.2209 15.2683 40.283 17.4635 40.8332 19.5605C41.6027 22.4622 43.2666 25.0478 45.5887 26.9504C45.7668 27.0954 45.8826 27.3031 45.9123 27.5309L46.8586 34.8018L52.6185 30.2648C52.7989 30.1227 53.027 30.0551 53.2557 30.076C56.2462 30.3392 59.2436 29.6538 61.8225 28.117C64.4786 26.521 66.5388 24.099 67.6881 21.2212C68.8373 18.3435 69.0123 15.1685 68.1863 12.1819C67.3602 9.19525 65.5786 6.56143 63.114 4.68322C60.6493 2.80501 57.6373 1.78582 54.5386 1.78152Z" fill="#00234B"/>
<path d="M63.83 20.0875L63.7493 16.9906L63.6279 12.3303L59.8977 14.0993L59.8152 10.9335L45.9442 11.2949L46.2189 21.839L60.0899 21.4776L60.0127 18.5152L63.83 20.0875ZM60.0127 18.5152L59.8977 14.0993L60.0127 18.5152Z" fill="#FFD5A2"/>
<path d="M59.9398 22.5223H59.9373L46.0617 22.4845C45.9438 22.4842 45.8272 22.4607 45.7184 22.4152C45.6096 22.3698 45.5108 22.3034 45.4276 22.2199C45.3445 22.1363 45.2786 22.0371 45.2338 21.9281C45.189 21.819 45.1661 21.7022 45.1664 21.5843L45.1952 11.0366C45.1959 10.799 45.2907 10.5713 45.459 10.4035C45.6273 10.2356 45.8552 10.1414 46.0929 10.1414H46.0954L59.971 10.1792C60.0889 10.1795 60.2055 10.203 60.3143 10.2485C60.4231 10.2939 60.5219 10.3603 60.6051 10.4438C60.6882 10.5274 60.754 10.6266 60.7989 10.7356C60.8437 10.8447 60.8666 10.9615 60.8663 11.0794L60.8375 21.6271C60.8368 21.8647 60.742 22.0924 60.5737 22.2602C60.4054 22.4281 60.1775 22.5223 59.9398 22.5223ZM46.9643 20.6915L59.0445 20.7244L59.0684 11.9722L46.9882 11.9393L46.9643 20.6915Z" fill="#00234B"/>
<path d="M63.7271 18.1426H63.7246C63.4865 18.1419 63.2584 18.0467 63.0905 17.8779C62.9226 17.7091 62.8286 17.4805 62.8293 17.2424L62.8382 13.9598L60.3213 15.0658C60.2133 15.1133 60.0971 15.1391 59.9792 15.1417C59.8613 15.1442 59.744 15.1236 59.6341 15.0808C59.5242 15.038 59.4238 14.974 59.3386 14.8924C59.2535 14.8109 59.1852 14.7133 59.1378 14.6053C59.0903 14.4974 59.0646 14.3811 59.0621 14.2632C59.0596 14.1453 59.0804 14.028 59.1232 13.9182C59.166 13.8083 59.2301 13.7079 59.3117 13.6228C59.3933 13.5377 59.4909 13.4695 59.5989 13.4221L63.3785 11.7612C63.5154 11.701 63.665 11.676 63.814 11.6884C63.9629 11.7007 64.1064 11.7501 64.2315 11.832C64.3565 11.9139 64.4591 12.0257 64.53 12.1572C64.6009 12.2888 64.6378 12.436 64.6374 12.5855L64.6247 17.2473C64.6241 17.4849 64.5292 17.7126 64.3609 17.8805C64.1927 18.0483 63.9647 18.1426 63.7271 18.1426Z" fill="#00234B"/>
<path d="M63.7182 21.2405C63.5922 21.2405 63.4676 21.214 63.3526 21.1626L59.582 19.4811C59.4743 19.4332 59.377 19.3644 59.2959 19.2789C59.2147 19.1933 59.1512 19.0926 59.1089 18.9825C59.0667 18.8723 59.0466 18.755 59.0497 18.6371C59.0528 18.5192 59.0792 18.403 59.1272 18.2953C59.1753 18.1876 59.2441 18.0904 59.3297 18.0093C59.4153 17.9282 59.5161 17.8647 59.6262 17.8226C59.7364 17.7804 59.8537 17.7604 59.9716 17.7636C60.0896 17.7668 60.2057 17.7932 60.3133 17.8413L62.8242 18.9611L62.8332 15.6785C62.8338 15.4408 62.9287 15.2131 63.097 15.0453C63.2652 14.8775 63.4932 14.7832 63.7309 14.7832H63.7334C63.9715 14.7839 64.1996 14.8791 64.3675 15.0479C64.5354 15.2167 64.6293 15.4453 64.6287 15.6834L64.616 20.3452C64.6153 20.5829 64.5204 20.8106 64.3521 20.9784C64.1838 21.1463 63.9558 21.2405 63.7182 21.2405Z" fill="#00234B"/>
<path d="M34.2108 79.3849L34.4831 78.731C34.563 78.5389 34.6981 78.3747 34.8712 78.2593C35.0444 78.1438 35.2478 78.0822 35.4559 78.0822H36.5981L36.6531 77.3684H33.7329L33.4733 79.1854L34.2108 79.3849Z" fill="#FFD5A2"/>
</g>
<defs>
<clipPath id="clip0">
<rect width="85" height="85" fill="white"/>
</clipPath>
</defs>
</svg>
