<svg width="14" height="13" fill="none" xmlns="http://www.w3.org/2000/svg"><path d="M11.585 10.66a1.827 1.827 0 00-1.125 1.126l-.343.984a.036.036 0 01-.035.027.036.036 0 01-.035-.027l-.34-.984A1.827 1.827 0 008.58 10.66l-.985-.342a.037.037 0 010-.07l.985-.341A1.826 1.826 0 009.706 8.78l.341-.985a.036.036 0 01.035-.026.037.037 0 01.035.026l.343.985a1.825 1.825 0 001.125 1.126l.985.342a.036.036 0 01.018.013.036.036 0 010 .042.037.037 0 01-.018.014l-.985.342zM12.38 3.61a2.283 2.283 0 00-1.407 1.408l-.427 1.231a.046.046 0 01-.087 0l-.428-1.23A2.283 2.283 0 008.624 3.61l-1.23-.428a.046.046 0 010-.086l1.23-.427a2.283 2.283 0 001.407-1.408l.428-1.23a.046.046 0 01.087 0l.427 1.23a2.283 2.283 0 001.408 1.408l1.23.427a.046.046 0 01.023.07.046.046 0 01-.023.016l-1.23.428zM6.97 7.451a3.17 3.17 0 00-1.955 1.955l-.594 1.71a.064.064 0 01-.12 0l-.594-1.71A3.17 3.17 0 001.752 7.45l-1.71-.594a.063.063 0 010-.12l1.71-.593a3.17 3.17 0 001.955-1.955l.594-1.71a.063.063 0 01.12 0l.594 1.71a3.17 3.17 0 001.954 1.955l1.71.593a.063.063 0 010 .12l-1.71.594z" fill="#fff"/></svg>