<svg width="85" height="85" viewBox="0 0 85 85" fill="none" xmlns="http://www.w3.org/2000/svg">
<path d="M42.4999 79.9838C63.2017 79.9838 79.9837 63.2018 79.9837 42.5C79.9837 21.7983 63.2017 5.01624 42.4999 5.01624C21.7982 5.01624 5.01617 21.7983 5.01617 42.5C5.01617 63.2018 21.7982 79.9838 42.4999 79.9838Z" fill="#FFD5A2"/>
<path d="M54.83 51.3901L68.5934 82.8456L59.8907 78.6996L51.7077 83.7403L39.517 54.5113L54.83 51.3901Z" fill="white"/>
<path d="M55.1305 52.077C55.1305 52.077 45.2672 61.3185 55.0958 81.4304L51.9233 83.7333L42.1783 60.5202L45.2672 54.5043L50.1061 53.8921L55.1305 52.077Z" fill="#FFD5A2"/>
<path d="M58.7597 77.9619C58.7597 77.9619 55.1793 77.2606 52.8332 79.229L55.0959 81.4305L58.7597 77.9619Z" fill="#FFD5A2"/>
<path d="M69.7693 84.7702C69.6391 84.7702 69.5104 84.7419 69.3923 84.6871L58.9234 79.8388L52.4449 84.4641C52.3354 84.5423 52.2096 84.5949 52.077 84.6179C51.9444 84.641 51.8083 84.6339 51.6788 84.5973C51.5493 84.5606 51.4297 84.4953 51.3288 84.4062C51.228 84.3171 51.1484 84.2064 51.0961 84.0824L41.6804 61.7621C41.5878 61.5428 41.5862 61.2956 41.6759 61.0751C41.7656 60.8545 41.9392 60.6786 42.1586 60.5861C42.3779 60.4935 42.6251 60.4919 42.8456 60.5816C43.0662 60.6713 43.2421 60.8449 43.3346 61.0642L52.3145 82.3511L58.3052 78.0741C58.4343 77.9819 58.5854 77.9256 58.7433 77.9108C58.9012 77.8961 59.0602 77.9234 59.2041 77.9901L67.9773 82.0531L54.4351 51.6234C54.3386 51.4059 54.3324 51.1591 54.4179 50.937C54.5033 50.715 54.6734 50.536 54.8907 50.4392C55.1081 50.3425 55.3549 50.336 55.5771 50.4212C55.7992 50.5063 55.9785 50.6762 56.0755 50.8934L70.5898 83.5075C70.6506 83.6442 70.6763 83.7939 70.6645 83.9431C70.6527 84.0922 70.6039 84.2361 70.5223 84.3616C70.4408 84.487 70.3292 84.5901 70.1977 84.6615C70.0662 84.7329 69.919 84.7703 69.7693 84.7702Z" fill="#00234B"/>
<path d="M29.9542 51.3833L16.1908 82.8386L24.8936 78.6926L33.0766 83.7334L45.2672 54.5044L29.9542 51.3833Z" fill="white"/>
<path d="M44.0738 56.8493C44.0738 56.8493 35.5921 60.1739 26.8298 57.8075L29.8028 52.077L35.4518 54.1111L44.0738 55.3674V56.8493Z" fill="#FFD5A2"/>
<path d="M29.0988 57.6317L20.0235 77.7381C20.0235 77.7381 23.6139 76.4914 26.5086 77.9779L15.2303 83.8723L15.8007 81.8063L29.0988 52.077H29.8029L29.0988 57.6317Z" fill="#FFD5A2"/>
<path d="M15.2305 84.77C15.0809 84.77 14.9336 84.7327 14.8021 84.6613C14.6706 84.5899 14.559 84.4868 14.4775 84.3614C14.396 84.2359 14.3471 84.092 14.3353 83.9429C14.3236 83.7937 14.3493 83.644 14.4101 83.5073L30.63 47.0606C30.7156 46.8679 30.8664 46.7116 31.0559 46.619C31.2454 46.5264 31.4614 46.5035 31.6661 46.5543L47.0056 50.3546C47.1315 50.3858 47.2492 50.4439 47.3505 50.5249C47.4518 50.6059 47.5343 50.7079 47.5924 50.8239C47.6505 50.9399 47.6827 51.0671 47.687 51.1967C47.6912 51.3263 47.6673 51.4554 47.6169 51.5749L33.9037 84.0822C33.8514 84.2062 33.7718 84.3168 33.671 84.406C33.5701 84.4951 33.4505 84.5604 33.321 84.5971C33.1915 84.6337 33.0554 84.6408 32.9228 84.6177C32.7902 84.5947 32.6645 84.5421 32.5549 84.4639L26.0764 79.8386L15.6076 84.6869C15.4894 84.7416 15.3608 84.77 15.2305 84.77ZM26.1728 77.9068C26.3599 77.9067 26.5423 77.9651 26.6946 78.0739L32.6853 82.3509L45.5543 51.8447L31.9644 48.478L17.0226 82.0529L25.7957 77.9899C25.9139 77.9351 26.0426 77.9067 26.1728 77.9068Z" fill="#00234B"/>
<path d="M42.489 54.5043C57.2286 54.5043 69.1774 42.5555 69.1774 27.8159C69.1774 13.0764 57.2286 1.12756 42.489 1.12756C27.7495 1.12756 15.8007 13.0764 15.8007 27.8159C15.8007 42.5555 27.7495 54.5043 42.489 54.5043Z" fill="#FFD5A2"/>
<path d="M42.9122 48.6227C54.1765 48.6227 63.308 39.4913 63.308 28.227C63.308 16.9628 54.1765 7.8313 42.9122 7.8313C31.648 7.8313 22.5165 16.9628 22.5165 28.227C22.5165 39.4913 31.648 48.6227 42.9122 48.6227Z" fill="#FFD5A2"/>
<path d="M44.0738 52.1816C38.4444 52.1782 32.9892 50.229 28.6323 46.6641C24.2754 43.0992 21.2848 38.1378 20.167 32.6205C19.0492 27.1031 19.873 21.369 22.4988 16.3894C25.1247 11.4099 29.391 7.49113 34.5753 5.29695C40.5373 2.78264 47.2538 2.73864 53.2483 5.17465C59.2428 7.61065 64.0246 12.3273 66.5428 18.2877C69.0609 24.2482 69.1092 30.9646 66.677 36.9606C64.2448 42.9567 59.5312 47.7416 53.5724 50.2635C50.5675 51.5354 47.3368 52.1878 44.0738 52.1816ZM44.0738 6.02944C39.7719 6.02943 35.5667 7.30509 31.9898 9.6951C28.4129 12.0851 25.625 15.4821 23.9787 19.4565C22.3325 23.431 21.9017 27.8043 22.741 32.0236C23.5803 36.2428 25.6518 40.1184 28.6937 43.1603C30.7134 45.1803 33.1112 46.7826 35.7502 47.8758C38.3892 48.9691 41.2176 49.5318 44.0741 49.5319C46.9306 49.5319 49.7591 48.9694 52.3981 47.8763C55.0371 46.7832 57.435 45.181 59.4548 43.1612C61.4747 41.1414 63.0769 38.7435 64.1699 36.1045C65.263 33.4654 65.8256 30.6369 65.8255 27.7805C65.8254 24.924 65.2627 22.0956 64.1695 19.4566C63.0763 16.8176 61.4739 14.4198 59.454 12.4001C57.439 10.374 55.0421 8.76773 52.4021 7.6742C49.762 6.58068 46.9314 6.02163 44.0738 6.02944Z" fill="#F6FAFD"/>
<path d="M42.5075 49.5206C37.2449 49.514 32.1723 47.553 28.2737 44.0181C24.3751 40.4831 21.9284 35.6261 21.4082 30.3892C20.8881 25.1523 22.3315 19.9089 25.4586 15.6761C28.5856 11.4433 33.1734 8.52276 38.3319 7.48111C43.4904 6.43946 48.852 7.35091 53.3765 10.0387C57.901 12.7264 61.266 16.9989 62.8187 22.0272C64.3713 27.0556 64.001 32.4815 61.7796 37.2523C59.5582 42.0231 55.6439 45.7987 50.7962 47.8468C48.1741 48.9567 45.3549 49.526 42.5075 49.5206ZM42.5075 8.72905C37.9966 8.72905 33.6252 10.2932 30.1381 13.1549C26.6511 16.0166 24.2642 19.9989 23.3842 24.4232C22.5042 28.8475 23.1854 33.4401 25.3119 37.4184C27.4383 41.3967 30.8784 44.5146 35.046 46.2409C39.2136 47.9672 43.8508 48.195 48.1675 46.8855C52.4843 45.5761 56.2134 42.8103 58.7196 39.0596C61.2257 35.3089 62.3538 30.8052 61.9117 26.3159C61.4695 21.8267 59.4845 17.6296 56.2947 14.4399C54.4884 12.6236 52.3397 11.1837 49.9732 10.2034C47.6066 9.22317 45.0691 8.72204 42.5075 8.72905Z" fill="#00234B"/>
<path d="M42.5076 55.4021C36.1435 55.3982 29.9763 53.1944 25.0508 49.1642C20.1254 45.134 16.7445 39.5252 15.4809 33.2877C14.2172 27.0503 15.1485 20.5677 18.1171 14.9383C21.0856 9.30889 25.9088 4.87865 31.7696 2.39809C38.5097 -0.443602 46.1024 -0.492776 52.8787 2.26138C59.6551 5.01553 65.0606 10.3476 67.9071 17.0857C70.7537 23.8237 70.8084 31.4164 68.0591 38.1947C65.3099 44.973 59.9817 50.3824 53.2457 53.2338C49.8487 54.6717 46.1964 55.4091 42.5076 55.4021ZM42.5076 2.02532C36.5577 2.02923 30.792 4.0897 26.1873 7.8577C21.5825 11.6257 18.4218 16.8696 17.2405 22.7011C16.0592 28.5325 16.9299 34.5931 19.7052 39.8561C22.4805 45.1191 26.9897 49.261 32.469 51.5802C38.7707 54.237 45.8694 54.2828 52.2048 51.7077C58.5403 49.1326 63.594 44.1473 66.2552 37.8475C68.9164 31.5478 68.9672 24.4491 66.3966 18.1118C63.8259 11.7746 58.8442 6.71733 52.5463 4.05172C49.3705 2.70774 45.9561 2.01852 42.5076 2.02532V2.02532Z" fill="#00234B"/>
<path d="M33.5856 57.1697L23.7254 77.7895L18.9033 78.7832L28.8436 56.4547L33.5856 57.1697Z" fill="#FFD5A2"/>
<path d="M43.1843 15.7115L47.1624 23.7721L56.0577 25.0647L49.621 31.3389L51.1405 40.1983L43.1843 36.0155L35.228 40.1983L36.7475 31.3389L30.3108 25.0647L39.2061 23.7721L43.1843 15.7115Z" fill="#FFD5A2"/>
<path d="M43.1843 15.7115V28.227L50.4005 39.0597V31.1268L56.0578 25.0647L48.6545 23.9889L47.1625 23.7721L43.1843 15.7115Z" fill="white"/>
<path d="M51.1404 41.0961C50.9949 41.0961 50.8516 41.0607 50.7228 40.993L43.1843 37.0298L35.6458 40.993C35.4976 41.0709 35.3305 41.1058 35.1634 41.0938C34.9963 41.0817 34.8359 41.0231 34.7004 40.9246C34.5649 40.8262 34.4596 40.6918 34.3965 40.5366C34.3334 40.3814 34.315 40.2117 34.3433 40.0466L35.783 31.6524L29.6842 25.7075C29.5643 25.5906 29.4794 25.4425 29.4393 25.2798C29.3992 25.1172 29.4053 24.9466 29.4571 24.7873C29.5089 24.628 29.6042 24.4863 29.7322 24.3783C29.8603 24.2704 30.016 24.2004 30.1818 24.1763L38.6101 22.9516L42.3793 15.3143C42.4534 15.1641 42.5681 15.0376 42.7104 14.9491C42.8526 14.8607 43.0168 14.8138 43.1843 14.8138C43.3518 14.8138 43.516 14.8607 43.6582 14.9491C43.8005 15.0376 43.9152 15.1641 43.9893 15.3143L47.7586 22.9516L56.1868 24.1763C56.3526 24.2004 56.5083 24.2704 56.6364 24.3783C56.7644 24.4863 56.8597 24.6279 56.9115 24.7873C56.9633 24.9466 56.9694 25.1172 56.9293 25.2798C56.8892 25.4425 56.8043 25.5906 56.6844 25.7075L50.5856 31.6524L52.0253 40.0466C52.0474 40.1755 52.0411 40.3076 52.0068 40.4338C51.9725 40.5599 51.9111 40.6771 51.8268 40.7771C51.7425 40.877 51.6374 40.9574 51.5189 41.0125C51.4003 41.0676 51.2711 41.0961 51.1404 41.0961ZM43.1843 35.1178C43.3299 35.1178 43.4732 35.1532 43.6021 35.2209L49.9482 38.5573L48.7362 31.4907C48.7116 31.3473 48.7223 31.2 48.7672 31.0615C48.8122 30.9231 48.8902 30.7977 48.9944 30.6961L54.1286 25.6915L47.0334 24.6605C46.8893 24.6396 46.7525 24.584 46.6348 24.4984C46.517 24.4129 46.4218 24.3 46.3574 24.1694L43.1843 17.7401L40.0112 24.1694C39.9468 24.3 39.8516 24.4129 39.7339 24.4984C39.6161 24.584 39.4793 24.6396 39.3353 24.6605L32.2401 25.6915L37.3742 30.6961C37.4784 30.7977 37.5564 30.9231 37.6014 31.0615C37.6463 31.2 37.657 31.3473 37.6324 31.4907L36.4204 38.5573L42.7666 35.2209C42.8954 35.1532 43.0388 35.1178 43.1843 35.1178Z" fill="#00234B"/>
</svg>
